<svg xmlns="http://www.w3.org/2000/svg" viewBox="0 0 500 500"><g id="freepik--Floor--inject-32"><ellipse id="freepik--floor--inject-32" cx="249.48" cy="346.08" rx="232.9" ry="138.18" style="fill:#f5f5f5"></ellipse></g><g id="freepik--Shadows--inject-32"><ellipse id="freepik--Shadow--inject-32" cx="83.45" cy="360.56" rx="53.98" ry="31.17" style="fill:#e0e0e0"></ellipse><ellipse id="freepik--shadow--inject-32" cx="416.54" cy="355.87" rx="53.98" ry="31.17" style="fill:#e0e0e0"></ellipse><polygon id="freepik--shadow--inject-32" points="126.02 356.55 186.95 391.73 280.56 337.68 219.45 302.61 126.02 356.55" style="fill:#e0e0e0"></polygon><polygon id="freepik--shadow--inject-32" points="220.79 379.47 288.63 418.65 360.29 377.33 292.27 338.26 220.79 379.47" style="fill:#e0e0e0"></polygon></g><g id="freepik--character-2--inject-32"><g id="freepik--Character--inject-32"><g id="freepik--Arm--inject-32"><path d="M386.43,133.33c-6.16,10.41-12.08,19.46-16.24,23.79-7.9,3.68-26.47,9.33-33.73,10.27a5.35,5.35,0,0,1-3.64-.86c-2.86-1.87-5.07-2.17-8.08-3.21-2.36-.82-3.36-1.94-3.8-1.52a2.68,2.68,0,0,0,.25,3.74,19.54,19.54,0,0,0,3.73,2.79,22,22,0,0,1-9.83.17c-6.29-1.65-9.26,1.37-5,8.2,1.53,2.44,7.52,6.35,19.67,5.3a109.29,109.29,0,0,0,12.91-1.53c11.65-2.49,24.6-4.89,32.56-7.27a20.75,20.75,0,0,0,7.74-5.36c13.39-15.27,17.83-26.15,23.7-36l-.51-16.15C396.66,115.35,391.59,124.61,386.43,133.33Z" style="fill:#ffa8a7"></path><path d="M408.52,114.54c-4.77.78-10.42,1.31-15.25,7-6.84,8.08-18,28.38-18,28.38s3.79,10.05,14,11.7l16.35-22.08S414,123.46,408.52,114.54Z" style="fill:#455a64"></path><path d="M343.15,166a66.23,66.23,0,0,1-6.69,1.35,5.35,5.35,0,0,1-3.64-.86c-2.86-1.87-5.07-2.17-8.08-3.21-2.36-.82-3.36-1.94-3.8-1.52a2.68,2.68,0,0,0,.25,3.74,19.54,19.54,0,0,0,3.73,2.79,22,22,0,0,1-9.83.17c-6.29-1.65-9.62,1.54-5.36,8.36,1.52,2.45,7.78,6.52,19.93,5.46a110.13,110.13,0,0,0,13-1.64,5.6,5.6,0,0,0,1.91-.61A53.69,53.69,0,0,1,343.15,166Z" style="fill:#f0f0f0"></path></g><g id="freepik--character--inject-32"><path d="M429.65,368.27c.15,1.36.34,5.19,7.28,6.14s11.32-1.34,13.17-4.68,1.42-6.06,1.72-9.15,2.85-4.74,3.58-6.33c1.09-2.35-.5-6-.5-6Z" style="fill:#263238"></path><path d="M379,357.39a4.23,4.23,0,0,0,.45,3.36,14.52,14.52,0,0,0,11.12,3,26.8,26.8,0,0,0,11.78-4.61,15.49,15.49,0,0,1,9.09-2.62c3.34-.11,5.78-.86,6-1.73.45-1.54.45-2.52-.29-2.47Z" style="fill:#263238"></path><path d="M453.29,342.88c-.87,6.32-13.14,5.81-12.14.76L439,328.27l13.89.43Z" style="fill:#ffa8a7"></path><path d="M430.15,365.11a41.11,41.11,0,0,1,3.2-3.81,34.32,34.32,0,0,0,7.21-18.41c0-.38.08-1.1.45-1.32s.75.09,1.15.26l0,0v0a7.25,7.25,0,0,0,2.15.57c2.46.27,5.18-.32,5.79-.23s.63,1.54.59,3.14c.87-.55,1.16-1.65,2-2.29.42-.35.61-.36.6-.93,0-.37,0-.7,0-1.07.64-.19,1.17,2.23,1.68,4.08.6,2.14,1.35,4.55.51,6.72a18.3,18.3,0,0,1-2,3.36,14,14,0,0,0-2.52,6.14c-.09,1,0,2-.15,2.93a8.6,8.6,0,0,1-6.06,7.05c-4.23,1.32-10.59,1.12-14.32-1.84C429.09,368.43,429.54,366.25,430.15,365.11Z" style="fill:#37474f"></path><path d="M414.35,341.82c-3.36,2.61-7.42,4.15-11.56,2.26l-1-25.86,13.93,2.5Z" style="fill:#ffa8a7"></path><path d="M381.8,352.93c.93-.3,1.84-.63,2.74-1a50.25,50.25,0,0,0,7.27-3.62c1-.62,2-1.27,3-2s2-1.52,3-2.31a11.21,11.21,0,0,0,1.41-1.51,15.49,15.49,0,0,0,2.09-3.38,1.26,1.26,0,0,1,.52-.69,1,1,0,0,1,1,.2,4.27,4.27,0,0,0,.76.52l.82.34a9.56,9.56,0,0,0,2.74.67c3.52.31,3.63-.39,3.79.74a9.53,9.53,0,0,1,0,1.28c1.86-.31,3.32-.91,3.4-1.62l.23-2.25c1.85-.17,2,3.15,2.58,6.88.5,3,1.22,5.2.39,7.41-2.8,2.45-7.75,1.86-10.57,2.32-4,.66-5.85,3.61-11.39,5.53-8.93,3.09-14.57-.47-16.24-2C378.22,356.48,378,354.14,381.8,352.93Z" style="fill:#37474f"></path><path d="M448.55,184.34c1.32,11,2.81,27.08,3.26,39.76.84,23.82.51,55.47.51,55.47a82,82,0,0,1,2.57,15.27c.57,15.21.46,49.38.46,49.38s-6.3,6.36-15.75,1.36c0,0-8.36-47.9-10.7-62.91-2.23-14.3-6.59-47.43-6.59-47.43l-2,45.13a62.71,62.71,0,0,1,1.49,19.49c-.52,7-4.5,41.4-4.5,41.4-3.62,3.4-14.2,1.55-16.51-1.16,0,0-3.7-50.87-4.11-58.22-.89-15.89-2.58-78.28-2.25-90.89C394.71,181.72,448.55,184.34,448.55,184.34Z" style="fill:#263238"></path><path d="M422.31,235.24l-2.76-18.32s-7.62-1.45-13.18-5.57c0,0,2.17,4.9,10.58,8.39l2.73,17.07.66,43.56Z"></path><path d="M437.77,115.68c3.51,1.75,9.77,4,13.85,6,5,2.45,3.23,4.38,3.23,9.81,0,13.91-7.12,37.11-7.12,37.11l1.94,23.72c-6.47,6.92-38.83,9.94-55.36-.2,0,0-1.13-43.15-.68-51.11.78-14,5.21-24.06,13.6-26.17S428.15,110.88,437.77,115.68Z" style="fill:#37474f"></path><path d="M433.81,71.18s3.95.55,5.4,3.54c1.27,2.59.81,8.85-.87,15.67s-3.27,10.93-4.26,12.82a5.23,5.23,0,0,1-3,2.42l.2-8.1.3-5.64s-3.63-4.94-4-9c-.51-5.22.58-7.35.58-7.35Z" style="fill:#263238"></path><path d="M434.74,72.17l5.57-2.55a3.27,3.27,0,0,0-4.22-1.73A3.15,3.15,0,0,0,434.74,72.17Z" style="fill:#263238"></path><path d="M427.42,79a15.12,15.12,0,1,1-15.06-15.17A15.1,15.1,0,0,1,427.42,79Z" style="fill:#263238"></path><path d="M431.34,91c1.36,1.18,2.47-1.87,3.61-3.06s4.88-2.81,6.72,1.11-1.7,9.42-4.49,10.72c-4.09,1.89-5.92-2.23-5.92-2.23l-.43,17c-2.44,7.53-11.84,8.55-15,7.73s-3.38-4.47-1.41-7.07l0-5.55a32,32,0,0,1-6.81.33c-3.72-.58-5.66-3.39-6.77-7.41-1.79-6.47-2.51-17.34,0-29.89,4.16-3.22,18.58-2.69,27.31,2.85C427.48,86.68,430,89.81,431.34,91Z" style="fill:#ffa8a7"></path><path d="M398.73,63.81a.68.68,0,0,1,.54-.42.9.9,0,0,1,.51.22,23.36,23.36,0,0,0,3.31,2.23,12.05,12.05,0,0,1-.06-4.52c.17-.91.43-3,1.56-3.26.67-.13,1.26.43,1.76.9,4.55,4.25,10.48,2.28,15.95,2.46,4.57.15,10.1,2,12.16,6.46,1,2,1.11,4.18-.76,5.59a12.91,12.91,0,0,1-5.58,2.08c-9.11,1.58-22.18,5.33-28.92-3.17a6.71,6.71,0,0,1-1.41-4.45,9.08,9.08,0,0,1,.92-4.07A.08.08,0,0,1,398.73,63.81Z" style="fill:#263238"></path><path d="M414.41,109.67s8.3-1.64,11.21-3.17a9.56,9.56,0,0,0,4-4,13.13,13.13,0,0,1-2.29,4.68c-2.13,2.7-13,4.66-13,4.66Z" style="fill:#f28f8f"></path><path d="M416.36,88.47A1.66,1.66,0,1,0,418,86.75,1.69,1.69,0,0,0,416.36,88.47Z" style="fill:#263238"></path><path d="M417,82.27l3.7,1.67a2.14,2.14,0,0,0-1.05-2.76A2,2,0,0,0,417,82.27Z" style="fill:#263238"></path><path d="M416.39,98.58l-6.64,2.47a3.49,3.49,0,0,0,4.5,2.21A3.69,3.69,0,0,0,416.39,98.58Z" style="fill:#f28f8f"></path><path d="M401.2,83.34,405,81.92a2,2,0,0,0-2.56-1.25A2.15,2.15,0,0,0,401.2,83.34Z" style="fill:#263238"></path><path d="M402.64,87.92a1.66,1.66,0,1,0,1.67-1.73A1.7,1.7,0,0,0,402.64,87.92Z" style="fill:#263238"></path><polygon points="410.86 83.94 410.32 97 404.35 95.37 410.86 83.94" style="fill:#f28f8f"></polygon><path d="M435.27,87.58a14.51,14.51,0,0,0-3,5.23,25.49,25.49,0,0,0-.53,3.86L431.71,99s-2.19,5.48-6.06,7.6-14.92,5.1-20,2.86-6.71-12-6.32-17.23c0,0,6.72-1.91,9.41-1.42s9.5,3,12,3.44c5.34.93,7.15-.3,10.5-3.82C434.19,87.25,435.27,87.58,435.27,87.58Z" style="fill:#0AB9F7"></path><path d="M435.27,87.58a14.51,14.51,0,0,0-3,5.23,25.49,25.49,0,0,0-.53,3.86L431.71,99s-2.19,5.48-6.06,7.6-14.92,5.1-20,2.86-6.71-12-6.32-17.23c0,0,6.72-1.91,9.41-1.42s9.5,3,12,3.44c5.34.93,7.15-.3,10.5-3.82C434.19,87.25,435.27,87.58,435.27,87.58Z" style="fill:#fff;opacity:0.5"></path><path d="M435.27,87.58a14.51,14.51,0,0,0-3,5.23,25.49,25.49,0,0,0-.53,3.86L431.71,99s-2.19,5.48-6.06,7.6-14.92,5.1-20,2.86-6.71-12-6.32-17.23c0,0,6.72-1.91,9.41-1.42s9.5,3,12,3.44c5.34.93,7.15-.3,10.5-3.82C434.19,87.25,435.27,87.58,435.27,87.58Z" style="opacity:0.1"></path><path d="M399.22,93.44q0-.61.06-1.2s6.72-1.91,9.41-1.42,9.5,3,12,3.44c5.34.93,7.15-.3,10.5-3.82,3-3.19,4.11-2.86,4.11-2.86a14.51,14.51,0,0,0-3,5.23,25.49,25.49,0,0,0-.53,3.86L431.71,99a15.8,15.8,0,0,1-2.73,4.66,11.93,11.93,0,0,0,1.64-6.84,11.25,11.25,0,0,1,1.48-5.71c-.57.76-1.61,3.6-5,4.49-4.77,1.26-9.08-.78-15.53-2.76C406.6,91.33,404.77,91.82,399.22,93.44Z" style="fill:#fafafa"></path></g><g id="freepik--medical-mask-box--inject-32"><polygon points="419.43 160 360.77 126.08 298.77 161.96 357.43 195.88 419.43 160" style="fill:#0AB9F7"></polygon><polygon points="419.43 160 360.77 126.08 298.77 161.96 357.43 195.88 419.43 160" style="fill:#fff;opacity:0.7000000000000001"></polygon><polygon points="357.43 236.89 419.43 201.01 419.43 160 357.43 195.88 357.43 236.89" style="fill:#0AB9F7"></polygon><polygon points="357.43 236.89 419.43 201.01 419.43 160 357.43 195.88 357.43 236.89" style="fill:#fff;opacity:0.6000000000000001"></polygon><path d="M364.27,223.28a1,1,0,0,1-.53-.14,1.62,1.62,0,0,1-.66-1.47v-4.34h0V217l.22,0,3.4-2v4.86a3.92,3.92,0,0,1-1.67,3.17A1.53,1.53,0,0,1,364.27,223.28Zm-.65-5.63v4a1.13,1.13,0,0,0,.39,1,.77.77,0,0,0,.74-.08,3.45,3.45,0,0,0,1.41-2.7v-.36H364.9l-.25-1.7Zm1.75,1.34h.79v-3l-2,1.19,1,.18Z" style="fill:#455a64"></path><path d="M364.89,226.75a.27.27,0,0,1-.27-.28v-3.65a.27.27,0,1,1,.54,0v3.65A.27.27,0,0,1,364.89,226.75Z" style="fill:#455a64"></path><path d="M363.3,227.66a.27.27,0,0,1-.13-.51l3.17-1.83a.27.27,0,0,1,.27.47l-3.17,1.84A.32.32,0,0,1,363.3,227.66Z" style="fill:#455a64"></path><path d="M374.61,221.38a.61.61,0,0,1-.3-.08.72.72,0,0,1-.33-.66v-.74a.27.27,0,0,1,.27-.28.28.28,0,0,1,.28.28v.74a.26.26,0,0,0,.05.19s.08,0,.18-.05a1.59,1.59,0,0,0,.51-1.23v-4.86a.27.27,0,0,1,.54,0v4.86a2.07,2.07,0,0,1-.77,1.7A.85.85,0,0,1,374.61,221.38Z" style="fill:#455a64"></path><path d="M371.73,217.13v-.47a7.75,7.75,0,0,1,3.49-6,2.31,2.31,0,0,1,3.77,2.17v.16Zm5.13-6.47a2.77,2.77,0,0,0-1.36.42,7.23,7.23,0,0,0-3.2,5.09l6.14-3.54a2,2,0,0,0-.84-1.78A1.43,1.43,0,0,0,376.86,210.66Z" style="fill:#455a64"></path><path d="M384.42,215.78a.27.27,0,0,1-.28-.27v-9.29a.28.28,0,1,1,.55,0v9.29A.27.27,0,0,1,384.42,215.78Z" style="fill:#455a64"></path><path d="M383.62,208.34a.23.23,0,0,1-.11,0,.27.27,0,0,1-.14-.36l1-2.24,1.08,1.25a.28.28,0,0,1,0,.39.29.29,0,0,1-.39,0l-.51-.6-.63,1.45A.3.3,0,0,1,383.62,208.34Z" style="fill:#455a64"></path><path d="M386.94,214.34a.27.27,0,0,1-.27-.27v-9.3a.27.27,0,0,1,.27-.27.28.28,0,0,1,.28.27v9.3A.28.28,0,0,1,386.94,214.34Z" style="fill:#455a64"></path><path d="M386.14,206.89a.18.18,0,0,1-.1,0,.28.28,0,0,1-.15-.36l1-2.24,1.09,1.25a.26.26,0,0,1,0,.38.27.27,0,0,1-.38,0l-.52-.6-.63,1.45A.26.26,0,0,1,386.14,206.89Z" style="fill:#455a64"></path><polygon points="357.43 236.89 298.77 202.96 298.77 161.96 357.43 195.88 357.43 236.89" style="fill:#0AB9F7"></polygon><polygon points="357.43 236.89 298.77 202.96 298.77 161.96 357.43 195.88 357.43 236.89" style="fill:#fff;opacity:0.4"></polygon><path d="M312.51,179.75l28.4,16.4a2.85,2.85,0,0,1,1.28,2.22v19.74c0,1.62-1.15,2.29-2.56,1.47l-28.4-16.4A2.83,2.83,0,0,1,310,201V181.22C310,179.6,311.11,178.93,312.51,179.75Z" style="fill:#fafafa"></path><path d="M323.72,199.55l-.27-.43c.6-.73.83-2.83.08-5.29a11.59,11.59,0,0,0-5.29-6.6c-2.55-1.47-4.43-1.3-5.29.5a7.29,7.29,0,0,0,.08,5.38l-.27.11a8,8,0,0,1-.11-5.87c.53-1.11,2-2.66,5.59-.57a12.28,12.28,0,0,1,5.59,7C324.65,196.46,324.38,198.74,323.72,199.55Z" style="fill:#455a64"></path><path d="M318.24,203.1c5.64,3.26,6.37-2.68,5.15-5.4-1.36-3-2.18-6.59-5.15-8.31s-3.79.9-5.16,2.36c-1.22,1.31-.49,8.09,5.16,11.35Z" style="fill:#0AB9F7"></path><path d="M318.24,203.1c5.64,3.26,6.37-2.68,5.15-5.4-1.36-3-2.18-6.59-5.15-8.31s-3.79.9-5.16,2.36c-1.22,1.31-.49,8.09,5.16,11.35Z" style="fill:#fff;opacity:0.6000000000000001"></path><path d="M321.94,198.39a22.33,22.33,0,0,0-1.81-2,11.64,11.64,0,0,0-1.89-1.53,6.65,6.65,0,0,0-1.88-.64,7,7,0,0,0-1.82-.09,3.48,3.48,0,0,1,1.74-.29,4.87,4.87,0,0,1,2,.57,10,10,0,0,1,2,1.7A15.09,15.09,0,0,1,321.94,198.39Z" style="opacity:0.2"></path><path d="M314.54,196.56c.6.73,1.19,1.48,1.8,2.09a8.44,8.44,0,0,0,1.9,1.44,5.49,5.49,0,0,0,1.91.76,8.23,8.23,0,0,0,1.79,0,3.75,3.75,0,0,1-1.71.4,4.46,4.46,0,0,1-2-.68,8.25,8.25,0,0,1-2-1.62A18.14,18.14,0,0,1,314.54,196.56Z" style="opacity:0.2"></path><path d="M314.54,195.19a39.4,39.4,0,0,1,3.7,1.91,43.19,43.19,0,0,1,3.7,2.36,37.22,37.22,0,0,1-3.7-1.91C317,196.83,315.78,196.08,314.54,195.19Z" style="opacity:0.2"></path><path d="M327.88,198.14a.35.35,0,0,1-.07-.15l-.3-1c0-.06,0-.12-.05-.19l0-.16h0c0,.16,0,.28,0,.36v2.18c0,.07,0,.11-.05.12a.3.3,0,0,1-.19-.06l-.13-.08a.63.63,0,0,1-.19-.15.36.36,0,0,1-.05-.19v-4c0-.07,0-.11.05-.12a.35.35,0,0,1,.19.05l.12.08a.42.42,0,0,1,.16.13.48.48,0,0,1,.09.19l.51,1.77c0,.09.05.21.07.35a1.34,1.34,0,0,1,.08-.26l.5-1.19c0-.05.06-.08.1-.08s.08,0,.15,0l.13.08a.71.71,0,0,1,.18.15.31.31,0,0,1,.06.19v4q0,.1-.06.12a.24.24,0,0,1-.18-.05l-.14-.08a.41.41,0,0,1-.18-.16.28.28,0,0,1-.06-.18v-2.18a1.93,1.93,0,0,1,0-.33l0,0a1.86,1.86,0,0,1-.09.24l-.3.7s0,.07-.07.08-.05,0-.09,0l-.07,0A.32.32,0,0,1,327.88,198.14Z" style="fill:#455a64"></path><path d="M329.7,200.57a.41.41,0,0,1,0-.21v-3.91c0-.09,0-.14,0-.17s.06,0,.11,0l1.21.7a.19.19,0,0,1,.09.12.88.88,0,0,1,0,.26v.19a.6.6,0,0,1,0,.23s-.05,0-.09,0l-.72-.42v.92l.64.37a.19.19,0,0,1,.09.13.81.81,0,0,1,0,.25v.2a.54.54,0,0,1,0,.22.05.05,0,0,1-.09,0l-.64-.37v1l.72.41a.25.25,0,0,1,.09.13.88.88,0,0,1,0,.26v.19a.6.6,0,0,1,0,.23s-.05,0-.09,0l-1.21-.7A.24.24,0,0,1,329.7,200.57Z" style="fill:#455a64"></path><path d="M331.57,201.66a.48.48,0,0,1,0-.22v-3.91a.25.25,0,0,1,0-.17s.06,0,.11,0l.78.45a1.74,1.74,0,0,1,.78,1,5.28,5.28,0,0,1,.26,1.8,3,3,0,0,1-.26,1.51c-.16.27-.42.31-.78.1l-.78-.45A.25.25,0,0,1,331.57,201.66Zm.87-.27c.15.09.25,0,.31-.13a3.53,3.53,0,0,0,.1-1,5.06,5.06,0,0,0-.1-1.13.72.72,0,0,0-.31-.49l-.26-.15v2.76Z" style="fill:#455a64"></path><path d="M333.87,202.86v-4c0-.14.08-.16.24-.07l.17.1a.39.39,0,0,1,.24.34v4c0,.14-.08.16-.24.07l-.17-.1A.39.39,0,0,1,333.87,202.86Z" style="fill:#455a64"></path><path d="M335.14,203.29a5.62,5.62,0,0,1-.26-1.88,2.83,2.83,0,0,1,.28-1.53c.18-.27.46-.29.84-.07a1.56,1.56,0,0,1,.35.27.48.48,0,0,1,.13.35,1.5,1.5,0,0,1-.05.4c0,.1-.09.12-.14.06a1.5,1.5,0,0,0-.26-.21c-.17-.1-.29-.05-.37.13a2.8,2.8,0,0,0-.12,1,4.2,4.2,0,0,0,.12,1.12.89.89,0,0,0,.39.57.3.3,0,0,0,.13.06l.14,0,0,0c.06,0,.1.1.13.22a1.94,1.94,0,0,1,0,.44.28.28,0,0,1,0,.15s0,.05-.09.05a.45.45,0,0,1-.18,0,.86.86,0,0,1-.24-.11A2,2,0,0,1,335.14,203.29Z" style="fill:#455a64"></path><path d="M336.62,204.51s0-.07,0-.11l.63-3.65c0-.1.11-.11.25,0l.27.16a.41.41,0,0,1,.25.32l.64,4.37v.12c0,.09-.06.11-.17,0l-.22-.13a.4.4,0,0,1-.22-.25l-.1-.84-.63-.35-.11.7c0,.08-.07.09-.19,0l-.21-.12C336.69,204.68,336.62,204.6,336.62,204.51Zm1.27-.81-.19-1.44c0-.16,0-.33-.05-.51h0c0,.16,0,.31-.05.45l-.18,1.24Z" style="fill:#455a64"></path><path d="M339,205.92a.67.67,0,0,1,0-.22v-4q0-.19.24-.06l.17.09a.41.41,0,0,1,.23.34v3.4l.61.35a.22.22,0,0,1,.1.13.88.88,0,0,1,0,.26v.19a.6.6,0,0,1,0,.23s-.05,0-.1,0l-1.09-.64A.28.28,0,0,1,339,205.92Z" style="fill:#455a64"></path><path d="M330.37,205.93a.48.48,0,0,1-.07-.16l-.3-1c0-.06,0-.12-.05-.19s0-.13,0-.16h0c0,.16,0,.28,0,.36v2.18c0,.07,0,.11-.05.12a.3.3,0,0,1-.19-.06l-.13-.08a.51.51,0,0,1-.19-.15.36.36,0,0,1-.05-.19v-4c0-.07,0-.11.05-.12a.35.35,0,0,1,.19.05l.12.08a.53.53,0,0,1,.16.13.48.48,0,0,1,.09.19l.51,1.77c0,.09.05.21.07.35a1.34,1.34,0,0,1,.08-.26l.51-1.19c0-.05.05-.08.08-.08a.24.24,0,0,1,.16.05l.13.07a.71.71,0,0,1,.18.15.31.31,0,0,1,.06.19v4c0,.07,0,.12-.06.13a.27.27,0,0,1-.18-.06l-.14-.08a.47.47,0,0,1-.18-.15.33.33,0,0,1-.06-.19v-2.18a2,2,0,0,1,0-.33l0,0a1.86,1.86,0,0,1-.09.24l-.3.7s0,.07-.07.08-.05,0-.09,0l-.07,0A.45.45,0,0,1,330.37,205.93Z" style="fill:#455a64"></path><path d="M331.92,208.14a.52.52,0,0,1,0-.11l.63-3.64c0-.11.1-.12.25,0l.26.16a.45.45,0,0,1,.26.32l.63,4.37a.84.84,0,0,0,0,.12c0,.1-.06.11-.18,0l-.22-.13a.35.35,0,0,1-.21-.25l-.11-.83-.62-.36-.11.7c0,.08-.08.09-.2,0l-.21-.12C332,208.31,331.92,208.23,331.92,208.14Zm1.27-.8-.18-1.45c0-.16,0-.33-.05-.5l0,0c0,.16,0,.32-.05.45l-.18,1.24Z" style="fill:#455a64"></path><path d="M334.43,209.67a1.48,1.48,0,0,1-.29-.41.91.91,0,0,1-.05-.26.87.87,0,0,1,.06-.32c0-.1.09-.13.14-.11l.1.13a1.49,1.49,0,0,0,.11.15,1.11,1.11,0,0,0,.28.29.23.23,0,0,0,.22,0q.09,0,.09-.27a.86.86,0,0,0,0-.32,1.23,1.23,0,0,0-.12-.26,3,3,0,0,0-.2-.31,3.63,3.63,0,0,1-.45-.83,2.5,2.5,0,0,1-.14-.9.94.94,0,0,1,.23-.75.55.55,0,0,1,.63,0,1.18,1.18,0,0,1,.29.24,1.05,1.05,0,0,1,.24.3.5.5,0,0,1,.08.26,1.19,1.19,0,0,1-.05.32c0,.1-.07.14-.12.11l-.12-.11a1,1,0,0,0-.26-.25c-.11-.07-.19-.07-.23,0a.33.33,0,0,0-.06.21,1,1,0,0,0,.08.41,3,3,0,0,0,.25.41l.1.14a3,3,0,0,1,.4.77,2.43,2.43,0,0,1,.13.84,1.49,1.49,0,0,1-.1.59.45.45,0,0,1-.3.31.59.59,0,0,1-.49-.1A1.65,1.65,0,0,1,334.43,209.67Z" style="fill:#455a64"></path><path d="M337.91,211.64q0,.09-.21,0l-.27-.16a.58.58,0,0,1-.15-.11.27.27,0,0,1-.07-.13l-.56-2.3h0v1.89q0,.19-.24.06l-.17-.1a.39.39,0,0,1-.24-.34v-4c0-.13.08-.16.24-.07l.17.1a.4.4,0,0,1,.24.34v1.9l.56-1.65a.07.07,0,0,1,.07-.06.48.48,0,0,1,.14.06l.22.13c.15.09.23.16.23.22a.35.35,0,0,1,0,.12l-.63,1.58.68,2.43A1,1,0,0,1,337.91,211.64Z" style="fill:#455a64"></path><polygon points="323.4 182.4 327.42 184.72 327.42 178.49 323.4 176.17 323.4 182.4" style="fill:#37474f"></polygon><polygon points="327.42 178.49 389.41 142.61 385.39 140.29 323.4 176.17 327.42 178.49" style="fill:#455a64"></polygon></g><g id="freepik--arm--inject-32"><path d="M447.24,178.42c4.29-8.11,9.18-26.32,11.62-35.52,3.46-13.05-2.14-21.27-8.5-21.6-4,.61-17.07,48.23-17.07,48.23-1.45,1.16-21.37,11.26-27.77,13.8a5,5,0,0,1-3.54,0c-3.07-1.12-5.17-.91-8.18-1.21-2.35-.24-3.54-1.08-3.84-.57a2.69,2.69,0,0,0,1.15,3.47,18.69,18.69,0,0,0,4.11,1.79,25,25,0,0,1-7.94,1.08c-6.15-.14-8.37,2.54-3.6,8.77,3,3.91,7.8,5.14,18.63,1.4,3.12-1.08,7.34-3.18,11.28-4.61,8.13-3,10.22-3.27,16.46-5.37C439.06,185.05,445.34,182,447.24,178.42Z" style="fill:#ffa8a7"></path><path d="M402,183.34c-3.07-1.12-5.17-.91-8.18-1.21-2.35-.24-3.54-1.08-3.84-.57a2.69,2.69,0,0,0,1.15,3.47,18.69,18.69,0,0,0,4.11,1.79,25,25,0,0,1-7.94,1.08c-6.15-.14-8.71,2.69-3.94,8.92,3,3.91,8.14,5.23,19,1.48,3.12-1.08,7.29-3.13,11.22-4.55.76-.28,1.66-.58,2.31-.81,1-3.93-.39-10.08-2.3-13.24-3.27,1.57-6.19,2.9-8,3.63A5,5,0,0,1,402,183.34Z" style="fill:#fafafa"></path><path d="M448,120.07a15.35,15.35,0,0,1,10,5.7c2.18,3,3.57,6,1.4,17.68a180.8,180.8,0,0,1-6.66,24.16s-8.7,3.72-18-5.72l6.35-24.6A30.32,30.32,0,0,1,448,120.07Z" style="fill:#455a64"></path></g></g></g><g id="freepik--character-1--inject-32"><g id="freepik--character--inject-32"><path d="M56.27,74.75c-3.2,0-6.2.59-8.44,2.77a13.43,13.43,0,0,0-3.55,5.23c-1.38,3.66-1.69,8.61-2.55,12.42s-2.3,7.72-5.29,10.24c-1.16,1-2.65,1.92-2.78,3.44a3.07,3.07,0,0,0,1.83,2.83,7.85,7.85,0,0,0,3.51.57,5.32,5.32,0,0,1-1.64,2.92,3.74,3.74,0,0,0-1.16,3.08c.33,1.3,1.84,1.91,3.17,2.09A12.16,12.16,0,0,0,50.78,115c3.74-5.24,4.54-12.8,3-18.87a40.86,40.86,0,0,1-1.12-8.24c-.1-2.66,2.12-6.88,5.58-7.74A2.34,2.34,0,0,0,59.78,78c0-.91,1.61-2.06.76-2.37C60.21,75.5,59.48,74.78,56.27,74.75Z" style="fill:#263238"></path><path d="M93,115.37s6.74-1.74,11.93,9.57c2.89,6.28,13.41,29.24,13.41,29.24s12.56.9,21.65.73c4-.08,7.31-.54,8.23-1.19,1.54-.79,2.16-2.34,2.68-3.76.87-2.39.34-5.06.4-6,.11-1.72,2.63-.6,3.38,2.2.55,2,.21,3.93,1,4.33a16.89,16.89,0,0,0,3.62-.92c1.66-.7,4.62-1.8,6.41-.59a2.24,2.24,0,0,1,1,1.82,8.4,8.4,0,0,0,.09,3,5.7,5.7,0,0,1,.49,1.44c.05.67-.33,1.11-.41,1.75-.11.87.7,1.65.64,2.53,0,.64-.52,1.17-.65,1.79-.09.4,0,.83-.12,1.23a2.81,2.81,0,0,1-1.63,1.68,20.18,20.18,0,0,1-7.62,1.86c-2.27.23-5.19.55-7.7.59-.83,0-5.3,0-10.21.5-10.75,1.13-26.27,2.56-29.51.84-4.48-2.37-19.38-36.35-19.38-36.35C88.88,119,93,115.37,93,115.37Z" style="fill:#ebebeb"></path><path d="M157.47,151.14c-1.59,1.09-1.77,1.65-1.64,2.51s2.59,1.12,5.22.73a17.17,17.17,0,0,0-4,1.34,1.7,1.7,0,0,0,.78,2.89,12.62,12.62,0,0,0,4-.22,16.16,16.16,0,0,0-3.19,1.47,1.45,1.45,0,0,0,.73,2.55,6.62,6.62,0,0,0,2.46,0s-2.29.68-2.72,1.42a2.23,2.23,0,0,0-.3,1.42,1.51,1.51,0,0,1-.26-2.16,2.6,2.6,0,0,1-1.55-2.85s-.31,1.88-3,3c0,0,2.24-2,2.07-4.4s-.65-3.07.26-3.89c0,0-.87-.11-1.21-1.33S156.42,151.58,157.47,151.14Z" style="fill:#e0e0e0"></path><path d="M118.52,153.93s-11.84-27.82-15.28-32.81-6.86-6.37-10.23-5.75l-.31,26.28,13.83,23.5c1.63,2.28,2.48,4.07,6.34,4.07s19-.71,23.92-1.3c0,0,2-7.08,0-13.25Z" style="fill:#0AB9F7"></path><path d="M118.52,153.93s-11.84-27.82-15.28-32.81-6.86-6.37-10.23-5.75l-.31,26.28,13.83,23.5c1.63,2.28,2.48,4.07,6.34,4.07s19-.71,23.92-1.3c0,0,2-7.08,0-13.25Z" style="fill:#fff;opacity:0.6000000000000001"></path><path d="M118.52,153.93a16,16,0,0,0-8.71,1.79s1-2.93,7.71-4.13Z" style="opacity:0.15"></path><path d="M62.16,164.48A66.74,66.74,0,0,0,50,187.92C44.17,208.79,51.08,254,51.08,254c-.34,3-4,8.94-5.67,22.32-2,15.82,1.19,58.38,1.19,58.38s4.1,3.25,10.26.51c0,0,12.85-62.05,15.28-77.76,2.12-13.71,6.46-42.19,6.46-42.19l3.72,43.06s-.89,7.55-1.62,13.41c-1.16,9.25,9.16,55.58,9.16,55.58s4.16,2.35,10.23.09c0,0,3.09-59.56,4.24-70.7,1.19-11.47,1.55-38.81,0-60.19-.48-6.45-3.19-26.38-4.17-31.92Z" style="fill:#455a64"></path><path d="M86.61,320.62c-.92-7.31-4.8-16.65-1.74-17.49l.75,3.85s2.69,2,8.28,1.61c5.14-.36,7.36-3.09,7.36-3.09l.15-2.6c1.56.45,1.59,1.58,1.1,6.25s-1,16.71-1.05,20.25c-.08,2.49,1.32,5.87,4.31,9a63,63,0,0,0,14.13,11c1.62.93,5.47,2.55,4.29,4.92a6.53,6.53,0,0,1-1.49,1.81,14,14,0,0,1-8,2.65q-.46,0-.93,0a20.49,20.49,0,0,1-11.72-5c-2-2-5.73-4.77-8.38-5.29s-6.49-3.18-6.75-4.9a22.56,22.56,0,0,1,.06-6.45c.09-.67.34-2.12.37-3.06A71.88,71.88,0,0,0,86.61,320.62Z" style="fill:#263238"></path><path d="M78.6,215.25l2.25-13a32.35,32.35,0,0,0,15.46-4.52s-4.9,6.27-13,6.81l-1.53,11.62.18,36.86Z" style="fill:#37474f"></path><path d="M45.61,341.17c.06-5.74-1-19.56-1.18-24s.91-4,.91-4l.13,2.71s2,1.9,7,2.21a15.89,15.89,0,0,0,8.2-1.53c.21-1.18.51-2.49.51-2.49,1.45.86.25,3.9-1.56,12.31s-2.47,8.39-1.64,19.73,1.06,17.15.63,20.42l-.24.09a17.75,17.75,0,0,1-1.89,5.73c-2.49,4.89-8,2.07-10-.92a12.4,12.4,0,0,1-2.6-7.3h0v-.06c0-.84,0-1.75,0-2.83.2-3.41.85-5.36,1.28-8.46l.11-1c0-.23.05-.44.08-.68C45.37,351.1,45.55,346.88,45.61,341.17Z" style="fill:#263238"></path><path d="M100.3,149.78c-.11,3.83-.63,12.95-.63,12.95-15.34,11-37.9,1.93-37.9,1.93L58,142.55s7.85-11.62-.1-23.44L70,116.39l14.64-1.25,8.37.23c1.95,3.8,7.47,12.46,9.1,16.34S107,141.44,100.3,149.78Z" style="fill:#455a64"></path><path d="M57.86,164.29l-4-20.18s10.88-13.2,2.93-25L67.29,117c1.59,4.12,10.7,13.1,20.1,14.38,4.39-4.25.38-12.62-1.5-16.2l7.12.19a90.58,90.58,0,0,1,9.57,16c1.67,4,4.7,11.51-2,19.85-.1,3.83.11,11.46.11,11.46,2.7,19.62,5,35.47,4.89,52.46-34.51,12.09-58.9,4-58.9,4,.6-5-.73-15.73,1.18-26.69C50.26,178.4,57.86,164.29,57.86,164.29Z" style="fill:#0AB9F7"></path><path d="M57.86,164.29l-4-20.18s10.88-13.2,2.93-25L67.29,117c1.59,4.12,10.7,13.1,20.1,14.38,4.39-4.25.38-12.62-1.5-16.2l7.12.19a90.58,90.58,0,0,1,9.57,16c1.67,4,4.7,11.51-2,19.85-.1,3.83.11,11.46.11,11.46,2.7,19.62,5,35.47,4.89,52.46-34.51,12.09-58.9,4-58.9,4,.6-5-.73-15.73,1.18-26.69C50.26,178.4,57.86,164.29,57.86,164.29Z" style="fill:#fff;opacity:0.75"></path><g style="opacity:0.1"><path d="M53.86,144.11l1.83,9.23,3.72-11s6.32-16.13-1.18-22.21l-.76.09C64.08,131.71,53.86,144.11,53.86,144.11Z" style="opacity:0.6000000000000001"></path><path d="M94,195.13c5.46-5.58,3.28-7.51-2.81-8.12a25,25,0,0,1-7.71-2,19.37,19.37,0,0,0,4.27-1.27,2.68,2.68,0,0,0,1.56-3.29c-.24-.53-1.51.15-3.87.1-3-.07-5-.53-8.21.21-1.18.27-2.8,1.14-3.86.56-.87-.48-1.95-1.11-3.17-1.84-1.48-.9-3.13-1.94-4.82-3l-9.89-7.16a116.9,116.9,0,0,0-5.19,13.41c2.68,1.29,5.46,2.56,8.1,3.78l1.59.73c1.46.68,3.58,1.55,5.4,2.48,3.88,2,8,3.63,10.06,4.61C85.63,199.27,90.53,198.63,94,195.13Z" style="opacity:0.6000000000000001"></path></g><path d="M90.1,219.47c1.58-28.33.94-79.95-2.71-88.09,0,0,1.2,20.64,1.37,37.6.09,9.42-.86,35.85-1.71,51.08C88.06,219.87,89.07,219.68,90.1,219.47Z" style="opacity:0.15"></path><polygon points="133.18 159.68 93.71 163.35 74.74 208.42 112.43 203.96 133.18 159.68" style="fill:#0AB9F7"></polygon><polygon points="133.18 159.68 93.71 163.35 74.74 208.42 112.43 203.96 133.18 159.68" style="opacity:0.4"></polygon><path d="M97.38,191.44a9,9,0,0,1-6.92,5.82,19.67,19.67,0,0,1-10.32-1.65l1.58-3.77Z" style="opacity:0.15"></path><path d="M121,164.63s.25-.62.55-1.39-1.91-1.17-4.94-.9l-5.81.52c-3,.27-5.75,1.11-6,1.88l-.55,1.39Z" style="opacity:0.15"></path><path d="M124.5,159.63c.2-.48-.68-.76-2-.63l-2.3.25s1.17-3-3.9-2.74-6.74,3.64-6.74,3.64l-2.47.28c-1.36.15-2.65.66-2.89,1.13l-.43.85,20.33-1.89S124.31,160.11,124.5,159.63Z" style="fill:#455a64"></path><path d="M104.94,164.92c.25-.64,2.17-1.33,4.56-1.7l.08-.22c.25-.67,0-1.14-1.41-1l0-.57,14.08-1.19-.67.5c-1.85.14-2.63.25-3.11,1.43a2.15,2.15,0,0,1-.1.27c2.19,0,3.64.35,3.39,1s-.55,1.39-.55,1.39l-16.8,1.5Z" style="fill:#37474f"></path><path d="M44.08,133.32c3.2-12.63,8.08-13.8,15.39-14.57,7.93,13.14-1,24.81-1,24.81l-6,21.12c1.1,1.13,12.13,8.84,19.29,13.17,1.21.74,2.29,1.37,3.17,1.84,1.06.59,2.67-.28,3.85-.56,3.17-.73,5.21-.27,8.22-.21,2.35.05,3.63-.63,3.86-.1a2.67,2.67,0,0,1-1.56,3.29A18.57,18.57,0,0,1,85,183.38a24.74,24.74,0,0,0,7.71,2c6.09.6,8.27,2.54,2.81,8.12-3.43,3.5-8.32,4.13-18.56-.87-2-1-6.18-2.62-10.06-4.6-1.82-.93-4-1.75-5.39-2.48-10.72-5.46-24.83-10.9-25.2-16.3S40.7,146.61,44.08,133.32Z" style="fill:#f0f0f0"></path><path d="M52.93,164.68l8.09-24s6.32-16.12-1.19-22.21c-4.54.54-7.81,1.06-9.86,2.76s-4,4.07-7.31,15.74-6.33,26.7-6.33,26.7c-1,4.76-1.75,6.56,2,9.76s23.24,12.14,23.24,12.14,2.25-7.22,5.39-10.76Z" style="fill:#0AB9F7"></path><path d="M52.93,164.68l8.09-24s6.32-16.12-1.19-22.21c-4.54.54-7.81,1.06-9.86,2.76s-4,4.07-7.31,15.74-6.33,26.7-6.33,26.7c-1,4.76-1.75,6.56,2,9.76s23.24,12.14,23.24,12.14,2.25-7.22,5.39-10.76Z" style="fill:#fff;opacity:0.6000000000000001"></path><path d="M52.93,164.68c-3.4-2.27-8.17-2.24-8.17-2.24s3.24-1.72,8.78.42Z" style="opacity:0.15"></path><path d="M96.89,90.8c1.77-1.34,3.65-2.67,4.6-4.66a6.55,6.55,0,0,0-1.87-7.79,9.94,9.94,0,0,0,2.28-4.41,4.2,4.2,0,0,0-1.77-4.36,7.47,7.47,0,0,0-3.27-.6c-5.33-.31-10.53-1.58-15.81-2.37-2.84-.43-7.47-1.07-11.59.45s-8.92,4-11,13c-2.53,1.46-4,6.57-3.68,11.5.22,3.38,2.77,8.94,5.46,12.19,5,6,7.2,5.35,8.89,9.56.56,1.42,2.69-.73,3.81-1.09,3.73-1.2,7.64-2.18,11.31-3.49,2.07-.73,3.5-2.9,4.57-4.7.58-1,1.08-2,1.57-3s1-2.15,1.55-3.21c.45-.87.61-1.68,1-2.57a10.57,10.57,0,0,1,3.62-4.15Z" style="fill:#263238"></path><path d="M92.59,78.22c2.75,1.32,5.13,3.13,6,17,.71,11.72-2.84,14.93-4.68,15.92s-5.54.79-9.16.49l.27,5.35s4.48,4.62-2.46,5.49c-9.71,1.22-13.06-5.09-13.06-5.09l-1.07-14.16s-2.43,2.14-5.46-.73-2.88-6.86-1.23-8.33c2.45-2.18,5-1.78,6.87,1.4,7.67-.41,10-10.34,10.22-15.69C82.76,75.2,88.59,86.41,92.59,78.22Z" style="fill:#ffa8a7"></path><path d="M69.92,99.91,67.75,94c1.65-.66,4-.38,4.17,1.34C72.15,97.25,71.56,99.25,69.92,99.91Z" style="fill:#263238"></path><path d="M95.69,77.13S94.4,88.23,79.1,89.42L78.41,77Z" style="fill:#263238"></path><path d="M84.41,92.53a1.52,1.52,0,1,1-1.72-1.37A1.55,1.55,0,0,1,84.41,92.53Z" style="fill:#263238"></path><path d="M83.35,102.19,88.57,104a2.72,2.72,0,0,1-3.48,1.8A2.91,2.91,0,0,1,83.35,102.19Z" style="fill:#f28f8f"></path><path d="M96.65,87.9l-3.09-1.78a1.72,1.72,0,0,1,2.39-.7A1.87,1.87,0,0,1,96.65,87.9Z" style="fill:#263238"></path><path d="M96.37,90.94a1.54,1.54,0,0,1-1.3,1.77,1.59,1.59,0,1,1,1.3-1.77Z" style="fill:#263238"></path><polygon points="88.26 89.75 89.58 99.91 95.32 97.85 88.26 89.75" style="fill:#f28f8f"></polygon><path d="M84.71,111.58c-3.74-.18-11.5-1.74-12.94-4.65a7.79,7.79,0,0,0,3,3.62c2.43,1.76,10.07,3.34,10.07,3.34Z" style="fill:#f28f8f"></path><path d="M65.21,92.74a13.18,13.18,0,0,1,3,4.66,23.26,23.26,0,0,1,.7,3.52l.18,2.15s2.31,4.92,6,6.67,14,3.9,18.6,1.56,5.53-11.43,4.89-16.19c0,0-6.28-1.4-8.73-.8S81.26,97.59,79,98.11c-4.88,1.14-6.6.1-9.87-3C66.18,92.38,65.21,92.74,65.21,92.74Z" style="fill:#0AB9F7"></path><path d="M65.21,92.74a13.18,13.18,0,0,1,3,4.66,23.26,23.26,0,0,1,.7,3.52l.18,2.15s2.31,4.92,6,6.67,14,3.9,18.6,1.56,5.53-11.43,4.89-16.19c0,0-6.28-1.4-8.73-.8S81.26,97.59,79,98.11c-4.88,1.14-6.6.1-9.87-3C66.18,92.38,65.21,92.74,65.21,92.74Z" style="fill:#fff;opacity:0.5"></path><path d="M65.21,92.74a13.18,13.18,0,0,1,3,4.66,23.26,23.26,0,0,1,.7,3.52l.18,2.15s2.31,4.92,6,6.67,14,3.9,18.6,1.56,5.53-11.43,4.89-16.19c0,0-6.28-1.4-8.73-.8S81.26,97.59,79,98.11c-4.88,1.14-6.6.1-9.87-3C66.18,92.38,65.21,92.74,65.21,92.74Z" style="opacity:0.1"></path><path d="M98.69,96.21c0-.38-.08-.75-.13-1.1,0,0-6.28-1.4-8.73-.8S81.26,97.59,79,98.11c-4.88,1.14-6.6.1-9.87-3-3-2.77-3.93-2.41-3.93-2.41a13.18,13.18,0,0,1,3,4.66,23.26,23.26,0,0,1,.7,3.52l.18,2.15a14.39,14.39,0,0,0,2.76,4.14A11,11,0,0,1,70,101a10.4,10.4,0,0,0-1.66-5.18c.56.67,1.67,3.22,4.87,3.87,4.45.89,8.31-1.21,14.14-3.38C91.78,94.66,93.49,95,98.69,96.21Z" style="fill:#fafafa"></path></g></g><g id="freepik--speech-bubbles--inject-32"><g id="freepik--speech-bubble--inject-32"><g id="freepik--speech-bubble--inject-32"><g id="freepik--speach-bubble--inject-32"><path d="M165.56,44,133.18,62.68a2.85,2.85,0,0,0-1.29,2.24V102a2.84,2.84,0,0,0,1.3,2.23l4.63,2.59a2.9,2.9,0,0,0,2.6,0L172.79,88.2A2.87,2.87,0,0,0,174.08,86V48.84a2.84,2.84,0,0,0-1.3-2.23L168.15,44A2.88,2.88,0,0,0,165.56,44Z" style="fill:#0AB9F7"></path><path d="M139.12,106.1V69a2.87,2.87,0,0,1,1.3-2.24l32.37-18.65c.71-.41,1.29-.07,1.29.75V86a2.87,2.87,0,0,1-1.29,2.24l-32.37,18.65C139.7,107.26,139.12,106.93,139.12,106.1Z" style="fill:#0AB9F7"></path><path d="M140.42,106.85a3,3,0,0,1-2.6,0l-4.63-2.61a2.79,2.79,0,0,1-1.3-2.22V64.92a2.68,2.68,0,0,1,.41-1.32l7.21,4.11a2.57,2.57,0,0,0-.39,1.27V106.1C139.12,106.86,139.66,107.29,140.42,106.85Z" style="opacity:0.2"></path><path d="M174.07,48.61c-.1-.66-.64-.89-1.28-.52L140.42,66.74a2.66,2.66,0,0,0-.91,1l-7.22-4.11a2.71,2.71,0,0,1,.89-.92L165.56,44a2.88,2.88,0,0,1,2.59,0l4.63,2.6A2.85,2.85,0,0,1,174.07,48.61Z" style="fill:#fff;opacity:0.4"></path></g><path d="M131.89,77.64,121.48,88.22a1.15,1.15,0,0,0,.2,1.77c.21.14,7.2,4.15,7.2,4.15l10.24-12.33Z" style="fill:#0AB9F7"></path><path d="M131.89,77.64,121.48,88.22a1.15,1.15,0,0,0,.2,1.77c.21.14,7.2,4.15,7.2,4.15l10.24-12.33Z" style="opacity:0.1"></path><path d="M139.12,81.81l-10.4,10.58a1.15,1.15,0,0,0,1,1.94L139.12,93C140.13,93,140.13,81.81,139.12,81.81Z" style="fill:#0AB9F7"></path></g><path d="M145.47,81.42a13.63,13.63,0,0,1,1.38-5.74h0l0,0A11.48,11.48,0,0,1,151,70.71c2.42-1.42,4.49.37,5.29,3.05a.26.26,0,0,0,.51,0c.71-3.66,2.8-8.06,5.29-9.52,1.65-1,3.15-.88,4.18,0h0a5.47,5.47,0,0,1,1.44,4.1c0,5.86-4.05,11.5-7.46,17.36l-3.68,5.69L153.06,90C149.61,88.13,145.5,87.29,145.47,81.42Z" style="fill:#fafafa"></path></g><g id="freepik--speech-bubble--inject-32"><g id="freepik--speech-bubble--inject-32"><g id="freepik--speach-bubble--inject-32"><path d="M332.78,44l32.37,18.65a2.84,2.84,0,0,1,1.3,2.24V102a2.86,2.86,0,0,1-1.3,2.23l-4.64,2.59a2.88,2.88,0,0,1-2.59,0L325.55,88.2a2.85,2.85,0,0,1-1.3-2.24V48.84a2.84,2.84,0,0,1,1.3-2.23L330.19,44A2.88,2.88,0,0,1,332.78,44Z" style="fill:#0AB9F7"></path><path d="M359.21,106.1V69a2.89,2.89,0,0,0-1.29-2.24L325.55,48.09c-.72-.41-1.3-.07-1.3.75V86a2.85,2.85,0,0,0,1.3,2.24l32.37,18.65C358.63,107.26,359.21,106.93,359.21,106.1Z" style="fill:#0AB9F7"></path><path d="M357.92,106.85a3,3,0,0,0,2.6,0l4.63-2.61a2.81,2.81,0,0,0,1.3-2.22V64.92A2.68,2.68,0,0,0,366,63.6l-7.21,4.11a2.56,2.56,0,0,1,.38,1.27V106.1C359.21,106.86,358.68,107.29,357.92,106.85Z" style="opacity:0.2"></path><path d="M324.27,48.61c.1-.66.63-.89,1.28-.52l32.37,18.65a2.66,2.66,0,0,1,.91,1L366,63.6a2.54,2.54,0,0,0-.89-.92L332.78,44a2.9,2.9,0,0,0-2.6,0l-4.63,2.6A2.84,2.84,0,0,0,324.27,48.61Z" style="fill:#fff;opacity:0.4"></path></g><path d="M366.45,77.64l10.4,10.58a1.14,1.14,0,0,1-.19,1.77c-.22.14-7.21,4.15-7.21,4.15L359.21,81.81Z" style="fill:#0AB9F7"></path><path d="M366.45,77.64l10.4,10.58a1.14,1.14,0,0,1-.19,1.77c-.22.14-7.21,4.15-7.21,4.15L359.21,81.81Z" style="opacity:0.1"></path><path d="M359.21,81.81l10.41,10.58a1.15,1.15,0,0,1-1,1.94L359.21,93C358.2,93,358.2,81.81,359.21,81.81Z" style="fill:#0AB9F7"></path></g><path d="M352.87,81.42a13.5,13.5,0,0,0-1.39-5.74h0l0,0a11.43,11.43,0,0,0-4.16-4.92c-2.41-1.42-4.49.37-5.28,3.05a.26.26,0,0,1-.51,0c-.71-3.66-2.81-8.06-5.29-9.52-1.66-1-3.15-.88-4.18,0h0a5.47,5.47,0,0,0-1.43,4.1c0,5.86,4,11.5,7.45,17.36l3.68,5.69L345.28,90C348.73,88.13,352.84,87.29,352.87,81.42Z" style="fill:#fafafa"></path></g></g></svg>