<svg xmlns="http://www.w3.org/2000/svg" viewBox="0 0 500 500"><g id="freepik--background-complete--inject-2"><path d="M94.25,162.32h-4a3.16,3.16,0,0,0-1.22.13,1.95,1.95,0,0,0-1.19,1.5,3.42,3.42,0,0,0,0,.72v.74a3.36,3.36,0,0,1-.05.77,2,2,0,0,1-.9,1.3,1.87,1.87,0,0,1-.8.28c-.29,0-.57,0-.86,0H70.46a2.29,2.29,0,0,1-.58-.06,1.88,1.88,0,0,1-1-.62,2,2,0,0,1-.49-1.09c0-.21,0-.41,0-.61v-.61a3.18,3.18,0,0,0-.12-1.19,1.88,1.88,0,0,0-1.89-1.26H57a6.39,6.39,0,0,0-2.72.51A6.46,6.46,0,0,0,52,164.55a6.21,6.21,0,0,0-1.28,2.58c-.06.24-.08.49-.12.73s0,.41,0,.62V268a6.15,6.15,0,0,0,2.65,5.27,6.43,6.43,0,0,0,4,1.09H94c1.31,0,2.63,0,3.91,0a6.13,6.13,0,0,0,3.51-1.36,6.27,6.27,0,0,0,1.27-1.4,5.93,5.93,0,0,0,.77-1.7,6.44,6.44,0,0,0,.24-1.85v-9.32c0-19.59,0-37.23,0-52s0-26.8,0-35.09V168.7a6.4,6.4,0,0,0-.45-2.5,6,6,0,0,0-1.18-1.85,5.85,5.85,0,0,0-1.41-1.15,5.93,5.93,0,0,0-2.32-.82c-.28,0-.49,0-.63-.06H94.25Z" style="fill:#fafafa"></path><path d="M445.92,162.32h-4.05a3.2,3.2,0,0,0-1.22.13,2,2,0,0,0-1.19,1.5,5.62,5.62,0,0,0,0,.72v.74a4,4,0,0,1,0,.77,2,2,0,0,1-.91,1.3,1.83,1.83,0,0,1-.79.28c-.29,0-.57,0-.86,0H422.14a2.41,2.41,0,0,1-.59-.06,1.89,1.89,0,0,1-1-.62,2.1,2.1,0,0,1-.5-1.09c0-.21,0-.41,0-.61v-.61a3.18,3.18,0,0,0-.12-1.19,1.88,1.88,0,0,0-1.89-1.26h-9.34a6.21,6.21,0,0,0-5,2.2,6.21,6.21,0,0,0-1.28,2.58c-.07.24-.08.49-.13.73s0,.41,0,.62V268a6.43,6.43,0,0,0,.24,2,6.17,6.17,0,0,0,2.41,3.31,6.4,6.4,0,0,0,4,1.09H445.7c1.31,0,2.62,0,3.91,0a6.16,6.16,0,0,0,3.51-1.36,6.52,6.52,0,0,0,1.27-1.4,5.93,5.93,0,0,0,.77-1.7,6.44,6.44,0,0,0,.24-1.85v-9.32c0-19.59,0-37.23,0-52s0-26.8,0-35.09c0-1,0-2,0-2.93a6.23,6.23,0,0,0-1.63-4.35,6,6,0,0,0-1.41-1.15,6,6,0,0,0-2.33-.82c-.27,0-.48,0-.63-.06h-3.55Z" style="fill:#fafafa"></path><path d="M216.31,82.83a20.16,20.16,0,0,1,.13,5.37L220.58,91l-3,7.69L212.68,98a20.07,20.07,0,0,1-3.7,3.9l1,4.88-7.54,3.35-3-4a19.75,19.75,0,0,1-5.37.13l-2.78,4.14-7.69-3,.72-4.93a20.37,20.37,0,0,1-3.89-3.71l-4.89,1-3.34-7.54,4-3a20.15,20.15,0,0,1-.13-5.37l-4.14-2.77,3-7.7,4.93.72a20,20,0,0,1,3.7-3.89l-1-4.89L190.08,62l3,4a20.59,20.59,0,0,1,5.37-.13l2.78-4.14,7.69,3-.72,4.93a20,20,0,0,1,3.89,3.7l4.89-1,3.34,7.53-4,3Zm-11.83-.06A8.85,8.85,0,1,0,200,94.44,8.83,8.83,0,0,0,204.48,82.77Z" style="fill:#e0e0e0;fill-rule:evenodd"></path><path d="M210.31,38.12a13.64,13.64,0,0,1,.09,3.55l2.73,1.84-2,5.08-3.26-.47a13.24,13.24,0,0,1-2.45,2.57l.64,3.23-5,2.21-2-2.64a13.64,13.64,0,0,1-3.55.09l-1.83,2.73-5.09-2,.48-3.26a13.58,13.58,0,0,1-2.58-2.45l-3.23.64-2.21-5,2.64-2a13.21,13.21,0,0,1-.08-3.55L181,37l2-5.09,3.26.48a13.24,13.24,0,0,1,2.45-2.57L188,26.54l5-2.21,2,2.64a13.22,13.22,0,0,1,3.55-.09l1.84-2.74,5.08,2-.48,3.26a13.29,13.29,0,0,1,2.58,2.45l3.23-.64,2.21,5-2.64,2Zm-7.82,0a5.85,5.85,0,1,0-3,7.72A5.84,5.84,0,0,0,202.49,38.08Z" style="fill:#f5f5f5;fill-rule:evenodd"></path><path d="M352.74,369.07a23.86,23.86,0,0,1,.16,6.31l4.85,3.25-3.48,9-5.78-.84a23.41,23.41,0,0,1-4.34,4.56l1.13,5.74L336.44,401,333,396.34a23.79,23.79,0,0,1-6.3.16l-3.26,4.85-9-3.48.85-5.78a23.74,23.74,0,0,1-4.57-4.34l-5.73,1.13L301,380l4.68-3.49a23.37,23.37,0,0,1-.15-6.3L300.67,367l3.48-9,5.78.85a23.8,23.8,0,0,1,4.35-4.57l-1.13-5.73L322,344.6l3.49,4.68a23.44,23.44,0,0,1,6.31-.15l3.25-4.86,9,3.48-.84,5.78a23.46,23.46,0,0,1,4.56,4.35l5.74-1.13,3.92,8.83-4.69,3.49ZM338.87,369a10.37,10.37,0,1,0-5.27,13.68A10.37,10.37,0,0,0,338.87,369Z" style="fill:#e0e0e0;fill-rule:evenodd"></path><path d="M329.4,422.62a14.12,14.12,0,0,1,.09,3.67l2.83,1.89-2,5.26-3.37-.49a13.83,13.83,0,0,1-2.53,2.66l.66,3.34-5.15,2.28-2-2.73a13.71,13.71,0,0,1-3.67.09l-1.9,2.83-5.26-2,.5-3.36a13.6,13.6,0,0,1-2.66-2.54l-3.34.66L299.25,429l2.73-2a13.7,13.7,0,0,1-.09-3.67l-2.83-1.9,2-5.25,3.37.49A13.83,13.83,0,0,1,307,414l-.66-3.34,5.15-2.28,2,2.73a13.31,13.31,0,0,1,3.67-.09l1.9-2.83,5.25,2-.49,3.37a13.85,13.85,0,0,1,2.66,2.53l3.34-.66,2.29,5.15-2.73,2Zm-8.08,0a6,6,0,1,0-3.08,8A6.06,6.06,0,0,0,321.32,422.58Z" style="fill:#f5f5f5;fill-rule:evenodd"></path><path d="M243.44,62.87a11.86,11.86,0,0,1,.08,3.2L246,67.73l-1.77,4.59-2.94-.43a12.5,12.5,0,0,1-2.21,2.33l.57,2.92-4.5,2-1.77-2.38a12.36,12.36,0,0,1-3.21.08L228.5,79.3l-4.59-1.77.43-3A11.88,11.88,0,0,1,222,72.37l-2.92.58-2-4.5,2.38-1.78a12.34,12.34,0,0,1-.08-3.21l-2.47-1.65,1.77-4.6,3,.43a11.83,11.83,0,0,1,2.21-2.32l-.58-2.92,4.5-2,1.78,2.39a11.92,11.92,0,0,1,3.21-.08l1.66-2.47L239,52,238.59,55a12.44,12.44,0,0,1,2.32,2.21l2.92-.57,2,4.5-2.39,1.78Zm-7.06,0a5.28,5.28,0,1,0-2.69,7A5.28,5.28,0,0,0,236.38,62.83Z" style="fill:#ebebeb;fill-rule:evenodd"></path><path d="M420.91,395.3a19.3,19.3,0,0,1,12-1.46c2.18.36,4.45,1,5.93,2.65s1.77,4.51.07,5.92a5.77,5.77,0,0,1-3.74.95c-3.18,0-6.7-.6-9.23,1.31-1.45,1.09-2.41,2.9-4.14,3.44a4.1,4.1,0,0,1-4.5-2,7,7,0,0,1-.51-5.16A7.88,7.88,0,0,1,420.91,395.3Z" style="fill:#ebebeb"></path><path d="M412.54,379.15c2.23,3.19,6.57,2.13,8.59.18s2.86-4.77,3.63-7.46c1.77-6.14,3.56-12.59,2.24-18.85a10.39,10.39,0,0,0-2.41-5.13,5.46,5.46,0,0,0-5.18-1.73c-2.19.58-3.55,2.72-4.54,4.76a44.94,44.94,0,0,0-4.44,19.29c0,3.11.36,6.37,2.11,8.94" style="fill:#ebebeb"></path><path d="M406.41,383.72a11.61,11.61,0,0,0,1.8-10.68,20.56,20.56,0,0,0-6.32-9.17,34.2,34.2,0,0,0-11.33-6.69,12.07,12.07,0,0,0-5.09-.86,5.36,5.36,0,0,0-4.28,2.58c-1.19,2.28-.05,5,1.19,7.29a86.62,86.62,0,0,0,7.44,11.32c2.23,2.88,4.78,5.72,8.18,7s6.93,1.15,8.73-1.21" style="fill:#ebebeb"></path><path d="M412.39,427.26a7.15,7.15,0,0,0,.2-1.45q.15-1.59.39-4a54.23,54.23,0,0,1,.89-5.8,45.6,45.6,0,0,1,2.1-6.85,25.18,25.18,0,0,1,3.5-6.19,13.14,13.14,0,0,1,4.42-3.68,12.32,12.32,0,0,1,3.72-1.15,7.51,7.51,0,0,0,1.45-.21,6.2,6.2,0,0,0-1.47,0,11.42,11.42,0,0,0-3.88,1,13.15,13.15,0,0,0-4.67,3.71,25.06,25.06,0,0,0-3.62,6.32,42.09,42.09,0,0,0-2.09,7,50.86,50.86,0,0,0-.78,5.87c-.12,1.68-.17,3-.19,4A7,7,0,0,0,412.39,427.26Z" style="fill:#e0e0e0"></path><path d="M412.66,424.21a3.16,3.16,0,0,0,0-.67v-1.92c0-1.67,0-4.09.08-7.07.15-6,.66-12.38,1.65-21.43.94-8.51,2.2-18.41,3.53-24.85.29-1.47.58-2.79.85-3.94s.48-2.15.69-3,.33-1.38.45-1.87a3.63,3.63,0,0,0,.12-.66,2.81,2.81,0,0,0-.24.63c-.14.48-.33,1.09-.56,1.84s-.5,1.79-.79,2.94-.62,2.47-.93,3.93a216.85,216.85,0,0,0-3.71,23.06c-1,9.07-1.44,17.33-1.48,23.3,0,3,0,5.41.1,7.08.05.79.09,1.42.12,1.93A2.49,2.49,0,0,0,412.66,424.21Z" style="fill:#e0e0e0"></path><path d="M412.7,408.29a12.4,12.4,0,0,0,0-2c-.08-1.29-.25-3.16-.62-5.44a69.6,69.6,0,0,0-1.77-7.93,64.71,64.71,0,0,0-3.31-9.39,50.1,50.1,0,0,0-9.74-15.16,23.94,23.94,0,0,0-2.29-2.13c-.35-.29-.66-.59-1-.83l-.89-.61a12.3,12.3,0,0,0-1.69-1.08,60.51,60.51,0,0,1,5.54,4.94,52.72,52.72,0,0,1,9.5,15.11,73.8,73.8,0,0,1,3.33,9.3c.87,2.91,1.45,5.59,1.89,7.85s.65,4.11.8,5.39A12.35,12.35,0,0,0,412.7,408.29Z" style="fill:#e0e0e0"></path><polygon points="397.31 436.38 398.9 458.25 426.99 458.25 428.59 436.38 397.31 436.38" style="fill:#e0e0e0"></polygon><rect x="394.59" y="427.76" width="37.34" height="8.62" style="fill:#e0e0e0"></rect><polygon points="394.6 457.41 394.6 459.8 396.35 459.8 431.32 459.8 431.32 457.41 394.6 457.41" style="fill:#ebebeb"></polygon><polygon points="398.07 464 396.35 459.8 429.98 459.8 427.98 464 398.07 464" style="fill:#e0e0e0"></polygon><path d="M428.07,443.53a2,2,0,0,1-.14.2l-.42.56-1.63,2.09-.07.09-.07-.1-4-5.55H422l-4,5.6-.13.17-.13-.16-4.7-5.58h.27l-.26.33-4.19,5.26-.14.17-.13-.18-4-5.6h.23L400,446.38l-.08.1-.07-.11-1.53-2.56-.39-.69a1.06,1.06,0,0,1-.12-.24,1,1,0,0,1,.17.22c.11.17.25.39.43.65l1.6,2.52h-.15l4.8-5.62.12-.15.11.16,4,5.57h-.27l4.19-5.27.26-.33.13-.16.14.16,4.68,5.6h-.26c1.44-2,2.79-3.89,4-5.58l.11-.16.12.16,3.93,5.62h-.14l1.7-2,.46-.53C428,443.58,428.06,443.52,428.07,443.53Z" style="fill:#f5f5f5"></path><path d="M429,436.24c0,.09-7,.17-15.72.17s-15.72-.08-15.72-.17,7-.18,15.72-.18S429,436.14,429,436.24Z" style="fill:#f5f5f5"></path><path d="M430.4,460c0,.1-7.65.18-17.08.18s-17.09-.08-17.09-.18,7.65-.17,17.09-.17S430.4,459.94,430.4,460Z" style="fill:#f5f5f5"></path></g><g id="freepik--Floor--inject-2"><path d="M462.5,464.46c0,.15-95.15.26-212.49.26s-212.51-.11-212.51-.26,95.13-.26,212.51-.26S462.5,464.32,462.5,464.46Z" style="fill:#455a64"></path></g><g id="freepik--Plant--inject-2"><rect x="88.11" y="417.08" width="56.43" height="7.75" style="fill:#263238"></rect><path d="M144.63,424.93H88V417h56.62Zm-56.42-.19h56.23v-7.56H88.21Z" style="fill:#263238"></path><polygon points="93.34 422.25 101.46 462.32 131.51 462.32 139.37 424.83 93.34 422.25" style="fill:#263238"></polygon><polygon points="93.34 458.53 97.67 464.49 134.2 464.49 139.37 458.53 93.34 458.53" style="fill:#455a64"></polygon><path d="M114.2,423.43c-.11,0-.25-18.57-.31-41.46s0-41.46.08-41.46.25,18.56.32,41.46S114.32,423.42,114.2,423.43Z" style="fill:#263238"></path><path d="M126.77,377a1.45,1.45,0,0,1-.15.43l-.5,1.2c-.11.27-.24.56-.37.87s-.24.68-.38,1-.28.79-.43,1.21-.27.9-.42,1.38a58.53,58.53,0,0,0-1.58,6.91,85.78,85.78,0,0,0-.87,8.64,115.89,115.89,0,0,0,.45,15.78c.18,2,.36,3.64.49,4.77l.15,1.29a2,2,0,0,1,0,.46,2.07,2.07,0,0,1-.1-.45c-.06-.33-.13-.76-.22-1.28-.18-1.12-.41-2.75-.63-4.76a104.16,104.16,0,0,1-.56-15.83,78.24,78.24,0,0,1,.91-8.68,52,52,0,0,1,1.67-6.93c.16-.49.29-.95.45-1.38s.32-.83.46-1.21.29-.72.41-1,.28-.6.41-.86l.57-1.17A2.14,2.14,0,0,1,126.77,377Z" style="fill:#263238"></path><path d="M125.33,362a4.81,4.81,0,0,1-.18.61c-.14.43-.34,1-.59,1.73-.13.37-.27.79-.43,1.24l-.45,1.5c-.33,1.07-.71,2.29-1.05,3.67-.18.68-.37,1.4-.57,2.14s-.35,1.54-.53,2.35c-.39,1.62-.68,3.37-1,5.2-.62,3.69-1.17,7.77-1.55,12.07s-.51,8.41-.57,12.15,0,7.11.19,9.94c0,1.41.15,2.69.22,3.81s.13,2.09.2,2.88.11,1.36.14,1.81a2.82,2.82,0,0,1,0,.64,6.21,6.21,0,0,1-.1-.63c-.05-.45-.12-1.05-.21-1.81s-.19-1.75-.28-2.87-.2-2.4-.27-3.82c-.19-2.83-.27-6.2-.28-9.95s.18-7.87.54-12.19.94-8.4,1.58-12.09c.38-1.84.68-3.6,1.09-5.21.19-.81.37-1.6.55-2.35s.4-1.46.59-2.15c.36-1.37.76-2.59,1.11-3.66.18-.53.34-1,.49-1.49s.33-.86.47-1.24c.27-.71.49-1.28.66-1.7A3.35,3.35,0,0,1,125.33,362Z" style="fill:#263238"></path><path d="M110.64,426.71a.74.74,0,0,1,0-.22c0-.16,0-.38,0-.64,0-.59-.1-1.41-.17-2.45-.13-2.17-.32-5.25-.56-9-.49-7.63-1.2-18.18-2.48-29.77-.66-5.8-1.42-11.31-2.21-16.3-.42-2.49-.81-4.86-1.24-7.07s-.82-4.26-1.22-6.13-.78-3.56-1.11-5-.65-2.75-.91-3.79-.45-1.81-.59-2.39c0-.26-.1-.46-.14-.63s0-.21,0-.21,0,.07.07.2.11.37.18.62l.66,2.37c.29,1,.63,2.3,1,3.78s.78,3.15,1.17,5,.86,3.91,1.27,6.13.84,4.58,1.27,7.07c.81,5,1.59,10.51,2.25,16.31,1.28,11.61,1.94,22.17,2.36,29.81.21,3.82.35,6.91.44,9.05l.09,2.46v.86Z" style="fill:#263238"></path><path d="M113.74,349.43c-.24-2.63-2.9-4.61-5.54-4.64a8.74,8.74,0,0,0-6.72,3.65,21.12,21.12,0,0,0-3.23,7.18,48.72,48.72,0,0,0-2,19.1A28.88,28.88,0,0,0,104.21,392,3.25,3.25,0,0,0,107,393.2a3.3,3.3,0,0,0,1.44-.89,42.8,42.8,0,0,0,13.88-32.52,13.17,13.17,0,0,0-1.74-7c-1.35-2-4.49-4.18-6.79-3.37" style="fill:#2ACDFB"></path><path d="M94,328.37,90.3,335.1c-.08.16-.2.34-.38.35s-.34-.17-.45-.33q-4.91-7.55-9.83-15.09l2.27-1.29Z" style="fill:#2ACDFB"></path><g style="opacity:0.2"><path d="M94,328.37,90.3,335.1c-.08.16-.2.34-.38.35s-.34-.17-.45-.33q-4.91-7.55-9.83-15.09l2.27-1.29Z"></path></g><path d="M114,340.51l-33.55-19.8a1.54,1.54,0,0,1-.81-.82c-.14-.5.24-1,.59-1.35a23.12,23.12,0,0,1,17.93-7,20.49,20.49,0,0,1,16.21,10.08c3.24,5.78,3.34,13.44-.37,18.93" style="fill:#2ACDFB"></path><path d="M85.26,314.39a2.19,2.19,0,0,1,.44-.05,12.31,12.31,0,0,1,1.27-.06,24.45,24.45,0,0,1,4.65.37,27.18,27.18,0,0,1,21.71,19.64,25.8,25.8,0,0,1,.84,4.6c.06.55,0,.69,0,1a1.77,1.77,0,0,1-.26.73,6.07,6.07,0,0,0,.05-1.69A28,28,0,0,0,87,314.43,16.26,16.26,0,0,1,85.26,314.39Z" style="fill:#263238"></path><path d="M109.43,326.84a8.15,8.15,0,0,1-1.7.77c-1.06.43-2.56,1-4.23,1.5s-3.2.95-4.32,1.22a8.41,8.41,0,0,1-1.83.35,8.79,8.79,0,0,1,1.76-.62l4.27-1.34,4.26-1.37A10,10,0,0,1,109.43,326.84Z" style="fill:#263238"></path><path d="M104.15,312.65a14.33,14.33,0,0,1,.39,3.75,13.92,13.92,0,0,1-.2,3.75,22.91,22.91,0,0,1-.2-3.74A22.37,22.37,0,0,1,104.15,312.65Z" style="fill:#263238"></path><path d="M80.13,320.34a13.67,13.67,0,0,1,2.44-.86c1.52-.47,3.64-1.07,6-1.64s4.53-1,6.1-1.28a15.18,15.18,0,0,1,2.56-.35,17.43,17.43,0,0,1-2.51.63c-1.55.35-3.69.83-6.06,1.39s-4.48,1.12-6,1.52A19.38,19.38,0,0,1,80.13,320.34Z" style="fill:#263238"></path><path d="M99.82,343.73c-2.89-2.19-5.94-2.62-9.55-2.48A29.21,29.21,0,0,0,79.81,344c-5.66,2.48-11,6.13-14.36,11.3s-4.55,12-2,17.64a2.52,2.52,0,0,0,1.14,1.39,2.73,2.73,0,0,0,1.9-.14c6.43-2.1,12.91-4.22,18.83-7.51s11.3-7.85,14.47-13.83a12,12,0,0,0,1.53-4.59,5.72,5.72,0,0,0-1.48-4.48" style="fill:#2ACDFB"></path><path d="M99.88,343.05l-.47.18-1.34.47-1,.32-1.14.45c-.81.33-1.76.66-2.75,1.14l-1.58.72c-.55.25-1.1.56-1.67.86-1.17.57-2.35,1.3-3.61,2a63.16,63.16,0,0,0-7.61,5.65,62.23,62.23,0,0,0-6.58,6.84c-.9,1.15-1.77,2.23-2.49,3.31-.36.54-.74,1-1.06,1.55l-.92,1.47c-.6.93-1.05,1.82-1.48,2.59-.21.39-.41.74-.58,1.07s-.32.65-.45.93l-.63,1.28a2.1,2.1,0,0,1-.25.43,3.36,3.36,0,0,1,.17-.46l.57-1.32.41-.94.56-1.09c.42-.78.85-1.69,1.44-2.63l.9-1.5c.31-.51.68-1,1-1.57.71-1.1,1.58-2.19,2.47-3.35a59.42,59.42,0,0,1,6.6-6.91,60.06,60.06,0,0,1,7.69-5.66c1.27-.74,2.46-1.47,3.64-2,.59-.29,1.14-.6,1.69-.84l1.6-.7c1-.47,2-.78,2.79-1.09.42-.15.8-.3,1.16-.42l1-.29,1.37-.39A1.64,1.64,0,0,1,99.88,343.05Z" style="fill:#263238"></path><path d="M77.34,355.25a67.25,67.25,0,0,1-7,2.26,65.59,65.59,0,0,1-7.13,1.88,66.54,66.54,0,0,1,7-2.26A67.56,67.56,0,0,1,77.34,355.25Z" style="fill:#263238"></path><path d="M77.05,370.74a10.75,10.75,0,0,1-.16-2.19c0-1.35,0-3.22,0-5.28s.17-3.93.28-5.28a11.55,11.55,0,0,1,.27-2.17,11.87,11.87,0,0,1,0,2.19c0,1.48-.1,3.28-.16,5.27s-.1,3.79-.13,5.27A14.07,14.07,0,0,1,77.05,370.74Z" style="fill:#263238"></path><path d="M90.31,364c-.11,0-.46-3.79-.78-8.48S89,347,89.14,347s.46,3.79.79,8.48S90.43,364,90.31,364Z" style="fill:#263238"></path><path d="M73.8,346.62a12.9,12.9,0,0,1,2.25-.07c1.39,0,3.3.05,5.42.12s4,.16,5.41.24a11.63,11.63,0,0,1,2.24.22,14.28,14.28,0,0,1-2.25.07c-1.39,0-3.3-.05-5.42-.12s-4-.16-5.41-.24A12.56,12.56,0,0,1,73.8,346.62Z" style="fill:#263238"></path><path d="M105.65,392.83a1.57,1.57,0,0,1-.05-.45c0-.34,0-.76-.06-1.29-.05-1.12-.06-2.74,0-4.75s.17-4.39.41-7,.64-5.54,1.18-8.55,1.23-5.86,1.91-8.43,1.42-4.85,2.1-6.75,1.25-3.41,1.69-4.45l.51-1.19a1.87,1.87,0,0,1,.2-.4,1.63,1.63,0,0,1-.12.43c-.12.32-.26.72-.44,1.22-.4,1.05-.94,2.58-1.57,4.48s-1.32,4.19-2,6.75-1.32,5.4-1.87,8.41-.93,5.89-1.21,8.52-.42,5-.5,7-.11,3.62-.1,4.74c0,.52,0,1,0,1.29A2.71,2.71,0,0,1,105.65,392.83Z" style="fill:#263238"></path><path d="M107.42,370.86a9.29,9.29,0,0,1-1.34,1.47c-.87.87-2.1,2-3.51,3.26s-2.72,2.31-3.69,3.05a9.59,9.59,0,0,1-1.63,1.14,10.17,10.17,0,0,1,1.45-1.36l3.61-3.13,3.57-3.16A11,11,0,0,1,107.42,370.86Z" style="fill:#263238"></path><path d="M118,379.42a16.23,16.23,0,0,1-1.42-2l-3.32-4.83c-1.28-1.82-2.44-3.47-3.38-4.79a16.8,16.8,0,0,1-1.36-2,12.75,12.75,0,0,1,1.59,1.86c.93,1.18,2.17,2.84,3.48,4.73s2.44,3.63,3.23,4.91A13,13,0,0,1,118,379.42Z" style="fill:#263238"></path><path d="M112.47,352.52c.06.09-3.47,2.47-7.88,5.3s-8,5.06-8.09,5,3.47-2.47,7.88-5.31S112.41,352.42,112.47,352.52Z" style="fill:#263238"></path><path d="M122.42,363.25a65.38,65.38,0,0,1-5.34-4.93,63.71,63.71,0,0,1-5-5.22,67.72,67.72,0,0,1,5.33,4.94A66,66,0,0,1,122.42,363.25Z" style="fill:#263238"></path><path d="M124.92,363l3-.25a15.11,15.11,0,0,0,6.11-1.87,23.78,23.78,0,0,1,2.85-1.44c3.75-1.5,7.92-1.23,12-1.43a49.62,49.62,0,0,0,19-4.86,1.85,1.85,0,0,0,.83-.76c.62-1.13-.53-2.14-1.53-2.75-5.1-3.14-10.29-6.33-16.08-7.89s-12.35-1.29-17.29,2.1c-5.79,4-7.9,12.18-8.88,19.15" style="fill:#2ACDFB"></path><path d="M168.77,352.06a2.19,2.19,0,0,1-.52-.24l-1.43-.75c-1.25-.65-3-1.62-5.3-2.7a49.37,49.37,0,0,0-8.21-3.17,27.24,27.24,0,0,0-10.63-.86,18.23,18.23,0,0,0-9.7,4.16,21.76,21.76,0,0,0-5,7.1,58.24,58.24,0,0,0-2.19,5.52c-.23.63-.41,1.14-.54,1.52a4.77,4.77,0,0,1-.21.53,2.25,2.25,0,0,1,.13-.55c.12-.39.27-.91.47-1.55a49.54,49.54,0,0,1,2.09-5.59,21.3,21.3,0,0,1,5.06-7.25,18.42,18.42,0,0,1,9.88-4.29,27,27,0,0,1,10.79.91,47.47,47.47,0,0,1,8.23,3.26c2.26,1.12,4,2.13,5.25,2.82l1.4.82A3.74,3.74,0,0,1,168.77,352.06Z" style="fill:#263238"></path><path d="M161.5,356c-.07.09-4-2.47-8.85-5.72s-8.68-6-8.62-6.06,4,2.47,8.85,5.73S161.56,355.88,161.5,356Z" style="fill:#263238"></path><path d="M157.27,344a9.44,9.44,0,0,1-2.88.52,9.56,9.56,0,0,1-2.94,0,19.74,19.74,0,0,1,2.9-.29A20.38,20.38,0,0,1,157.27,344Z" style="fill:#263238"></path><path d="M139.93,341.73a7.44,7.44,0,0,1-1.29,2,8.45,8.45,0,0,1-1.65,1.87,7.65,7.65,0,0,1,1.3-2A8.56,8.56,0,0,1,139.93,341.73Z" style="fill:#263238"></path><path d="M143.48,358.3a10.49,10.49,0,0,1-1.9-1c-1.15-.69-2.69-1.71-4.34-2.91s-3.11-2.34-4.16-3.17a10.32,10.32,0,0,1-1.64-1.41,12,12,0,0,1,1.81,1.19l4.22,3.06c1.65,1.2,3.16,2.25,4.26,3A12.68,12.68,0,0,1,143.48,358.3Z" style="fill:#263238"></path><path d="M129.38,375.9c-2.89-.76-6.33,2.05-6.93,5s.5,5.92,1.79,8.61a43.91,43.91,0,0,0,11.94,15.63,29.5,29.5,0,0,0,18.26,6.72c-1.22-5.67.33-11.59-.35-17.35a22.58,22.58,0,0,0-20-19.8c-1.84-.2-4-.49-4.71,1.21" style="fill:#2ACDFB"></path><path d="M154.44,411.84a1.58,1.58,0,0,1-.41-.19,7.91,7.91,0,0,1-1.08-.72,11.45,11.45,0,0,1-2.85-3.82c-.46-.89-1-1.86-1.48-2.94s-1-2.22-1.55-3.43a33.94,33.94,0,0,0-1.91-3.67,28.77,28.77,0,0,0-2.63-3.58c-2-2.32-4.1-4.33-5.94-6.25a40.85,40.85,0,0,1-4.52-5.43,19.67,19.67,0,0,1-2.22-4.23,12.32,12.32,0,0,1-.38-1.23,1.64,1.64,0,0,1-.09-.45s.2.59.62,1.63a21.71,21.71,0,0,0,2.3,4.12,42.51,42.51,0,0,0,4.56,5.33c1.85,1.9,4,3.91,6,6.25a29.51,29.51,0,0,1,2.66,3.63,33.8,33.8,0,0,1,1.91,3.73c.53,1.21,1,2.36,1.52,3.44s1,2.05,1.42,3a11.69,11.69,0,0,0,2.7,3.83C153.9,411.53,154.47,411.8,154.44,411.84Z" style="fill:#263238"></path><path d="M139.51,407.13a9.09,9.09,0,0,1,.26-1.94c.23-1.19.6-2.83,1.1-4.6s1-3.37,1.47-4.5a8.59,8.59,0,0,1,.79-1.8,11.81,11.81,0,0,1-.52,1.89c-.36,1.15-.85,2.74-1.35,4.51s-.91,3.39-1.21,4.56A9.64,9.64,0,0,1,139.51,407.13Z" style="fill:#263238"></path><path d="M153.9,393.21a11.11,11.11,0,0,1-2-.47c-1.24-.32-3-.77-4.87-1.2s-3.66-.76-4.92-1a12.69,12.69,0,0,1-2-.45,9.12,9.12,0,0,1,2.08.17c1.28.16,3,.46,5,.89s3.63.92,4.86,1.32A10.47,10.47,0,0,1,153.9,393.21Z" style="fill:#263238"></path><path d="M128.79,397.25a12.31,12.31,0,0,1,.31-2.25c.26-1.37.66-3.27,1.2-5.34s1.12-3.92,1.57-5.25a11.78,11.78,0,0,1,.83-2.12,14.93,14.93,0,0,1-.56,2.2c-.38,1.35-.91,3.21-1.45,5.27s-1,3.94-1.31,5.3A12.51,12.51,0,0,1,128.79,397.25Z" style="fill:#263238"></path><path d="M147.27,381.08c0,.11-3.62-.18-8.05-.65s-8-.94-8-1.05a77.83,77.83,0,0,1,8,.65C143.7,380.5,147.28,381,147.27,381.08Z" style="fill:#263238"></path><path d="M144.63,424.8c0,.11-12.67.2-28.31.2s-28.3-.09-28.3-.2,12.67-.2,28.3-.2S144.63,424.69,144.63,424.8Z" style="fill:#455a64"></path><path d="M135.81,441.11c0,.11-8.54.2-19.07.2s-19.07-.09-19.07-.2,8.54-.2,19.07-.2S135.81,441,135.81,441.11Z" style="fill:#455a64"></path><path d="M135.48,443.44c0,.12-8.39.21-18.74.21S98,443.56,98,443.44s8.39-.2,18.74-.2S135.48,443.33,135.48,443.44Z" style="fill:#455a64"></path><path d="M136.14,439.19c0,.11-8.83.2-19.72.2s-19.73-.09-19.73-.2,8.83-.2,19.73-.2S136.14,439.08,136.14,439.19Z" style="fill:#455a64"></path></g><g id="freepik--Screens--inject-2"><path d="M149.17,120.31h-6.46a5,5,0,0,0-2,.21,3.06,3.06,0,0,0-1.53,1.36,3.4,3.4,0,0,0-.37,1,7.12,7.12,0,0,0,0,1.14v1.18a5.7,5.7,0,0,1-.08,1.23,3.27,3.27,0,0,1-1.44,2.08A3.1,3.1,0,0,1,136,129c-.46,0-.9,0-1.37,0H111.23a3.27,3.27,0,0,1-.93-.09,3.09,3.09,0,0,1-1.61-1,3.34,3.34,0,0,1-.79-1.75,7.92,7.92,0,0,1,0-1v-1a5,5,0,0,0-.2-1.9,3.08,3.08,0,0,0-1.15-1.51,3,3,0,0,0-1.86-.51H89.76a9.92,9.92,0,0,0-8,3.52,9.88,9.88,0,0,0-2,4.11,11.72,11.72,0,0,0-.2,1.16c0,.33,0,.66,0,1v158.8a10.31,10.31,0,0,0,.4,3.13,9.84,9.84,0,0,0,3.84,5.28,10.23,10.23,0,0,0,6.32,1.73h58.74c2.09,0,4.19,0,6.24,0a9.84,9.84,0,0,0,5.6-2.17,10.21,10.21,0,0,0,2-2.23,9.71,9.71,0,0,0,1.24-2.72,10.52,10.52,0,0,0,.37-3V274.15c0-31.25,0-59.38.05-83s0-42.75.06-56v-4.68a10.17,10.17,0,0,0-.72-4,9.94,9.94,0,0,0-1.87-2.95,9.63,9.63,0,0,0-2.25-1.83,9.44,9.44,0,0,0-3.71-1.31,8.13,8.13,0,0,0-1-.09l-.34,0h-5.32Z" style="fill:#fafafa"></path><path d="M154.6,120.42h.34a10,10,0,0,1,1,.08,9.92,9.92,0,0,1,6,3.12,9.84,9.84,0,0,1,1.89,3,10.19,10.19,0,0,1,.74,4c0,1.47,0,3,0,4.68,0,13.22,0,32.34,0,56s0,51.77,0,83v14.86a10.72,10.72,0,0,1-.38,3A10.1,10.1,0,0,1,163,295a10.71,10.71,0,0,1-2.07,2.29,10,10,0,0,1-5.73,2.22c-2.08.06-4.14,0-6.23,0H136.31l-25.93,0h-20A10.5,10.5,0,0,1,84,297.71,10.22,10.22,0,0,1,80,292.28a11,11,0,0,1-.41-3.36V272.31q0-13.17,0-25.94c0-17,0-33.4,0-49s0-30.47,0-44.37q0-10.41,0-20.1v-2.41c0-.4,0-.8.06-1.2s.1-.8.2-1.19a10.08,10.08,0,0,1,2.09-4.2,10.05,10.05,0,0,1,8.09-3.58H105a3.24,3.24,0,0,1,2,.55,3.28,3.28,0,0,1,1.21,1.59,5.49,5.49,0,0,1,.2,2v1a7.26,7.26,0,0,0,0,.94,3.18,3.18,0,0,0,.74,1.67,3,3,0,0,0,1.52.94,3.28,3.28,0,0,0,.89.08H116l13.08,0h5.77c.45,0,.91,0,1.35,0a3,3,0,0,0,1.21-.42,3.17,3.17,0,0,0,1.39-2,5.47,5.47,0,0,0,.08-1.21v-1.18a7.45,7.45,0,0,1,.05-1.16,3.44,3.44,0,0,1,.38-1.06,3.07,3.07,0,0,1,1.58-1.4,4.8,4.8,0,0,1,2-.21h6.44l3.95,0h1.35l-1.35,0H142.86a4.78,4.78,0,0,0-1.94.21,3.1,3.1,0,0,0-1.53,1.36,3.38,3.38,0,0,0-.36,1,7,7,0,0,0-.05,1.14v1.18a5.68,5.68,0,0,1-.07,1.23,3.23,3.23,0,0,1-1.44,2.07,2.94,2.94,0,0,1-1.26.45c-.46,0-.9,0-1.36,0H111.5a3.67,3.67,0,0,1-.93-.09,3.11,3.11,0,0,1-1.61-1,3.37,3.37,0,0,1-.78-1.74,7.92,7.92,0,0,1,0-1v-1a5.05,5.05,0,0,0-.2-1.9,3.1,3.1,0,0,0-1.15-1.5,2.92,2.92,0,0,0-1.85-.51H90.11A9.88,9.88,0,0,0,82.18,124a9.86,9.86,0,0,0-2,4.12c-.1.38-.13.77-.2,1.16s0,.78,0,1.18V288.92a10.66,10.66,0,0,0,.4,3.28,9.9,9.9,0,0,0,3.82,5.28,10.22,10.22,0,0,0,6.31,1.73h20l25.93,0h12.63c2.08,0,4.17,0,6.22,0a9.74,9.74,0,0,0,5.57-2.16,10.44,10.44,0,0,0,2-2.23,9.81,9.81,0,0,0,1.23-2.72,10.19,10.19,0,0,0,.37-3v-3c0-4,0-8,0-11.86,0-31.25,0-59.39,0-83s0-42.75.05-56c0-1.65,0-3.21,0-4.68a10.08,10.08,0,0,0-.73-4,9.8,9.8,0,0,0-1.86-2.94,9.94,9.94,0,0,0-5.94-3.14,6.35,6.35,0,0,0-1-.09Z" style="fill:#263238"></path><path d="M156.52,136.49s-1.64.09-3.66.11-3.66,0-3.66,0,1.63-.09,3.66-.11S156.52,136.45,156.52,136.49Z" style="fill:#263238"></path><path d="M156.54,138.37s-1.64.09-3.67.1-3.66,0-3.66,0,1.64-.09,3.66-.11S156.54,138.32,156.54,138.37Z" style="fill:#263238"></path><path d="M156.55,140.24s-1.64.09-3.66.11-3.66,0-3.66,0,1.64-.09,3.66-.11S156.55,140.2,156.55,140.24Z" style="fill:#263238"></path><path d="M89.9,142.38h.15l.43,0,1.56,0,0,0c0-.35,0-.72,0-1.13,0-.21,0-.41,0-.66a.61.61,0,0,1,.53-.48h.74a.6.6,0,0,1,.52.6c0,.53,0,1.08,0,1.66l-.08-.07,2,0-.08.07c0-.79,0-1.61,0-2.46,0-.21,0-.42,0-.62a.63.63,0,0,0-.27-.47l-.87-.85-.83-.82-.4-.4c-.14-.13-.25-.27-.41-.3a.54.54,0,0,0-.45.08c-.12.1-.25.25-.37.36l-.71.72c-.44.46-.91.88-1.24,1.28a1.33,1.33,0,0,0-.1.74v.69c0,.43,0,.8,0,1.12s0,.53,0,.72a1.11,1.11,0,0,1,0,.26,2.17,2.17,0,0,1,0-.24c0-.19,0-.42,0-.7l0-1.13c0-.23,0-.46,0-.71v-.39a.87.87,0,0,1,.11-.41c.37-.45.8-.85,1.25-1.32l.7-.72c.13-.12.23-.25.38-.38a.7.7,0,0,1,.58-.11,1.1,1.1,0,0,1,.47.34l.41.39.83.82.86.85a1.28,1.28,0,0,1,.22.24.65.65,0,0,1,.11.33v.63c0,.84,0,1.67,0,2.46v.08H93.64v-.07c0-.57,0-1.13,0-1.66a.48.48,0,0,0-.4-.48c-.22,0-.49,0-.71,0a.5.5,0,0,0-.43.39c0,.19,0,.43,0,.63,0,.41,0,.78,0,1.13v0H89.9Z" style="fill:#263238"></path><path d="M139.64,208c0,.28-7.85.51-17.53.51s-17.52-.23-17.52-.51,7.84-.51,17.52-.51S139.64,207.74,139.64,208Z" style="fill:#263238"></path><rect x="105.16" y="156.62" width="34.02" height="45.27" transform="translate(-57.76 300.42) rotate(-89.68)" style="fill:#2ACDFB"></rect><polygon points="99.44 196.14 115.37 175.08 125.09 188.37 131.77 181.33 144.71 196.39 99.44 196.14" style="fill:#2ACDFB"></polygon><path d="M129.33,172.57a3.56,3.56,0,1,1-3.54-3.59A3.56,3.56,0,0,1,129.33,172.57Z" style="fill:#2ACDFB"></path><g style="opacity:0.2"><polygon points="99.44 196.14 115.37 175.08 125.09 188.37 131.77 181.33 144.71 196.39 99.44 196.14"></polygon></g><g style="opacity:0.2"><path d="M129.33,172.57a3.56,3.56,0,1,1-3.54-3.59A3.56,3.56,0,0,1,129.33,172.57Z"></path></g><path d="M153.28,220.54c0,.29-13.92.52-31.07.52s-31.08-.23-31.08-.52S105,220,122.21,220,153.28,220.26,153.28,220.54Z" style="fill:#263238"></path><path d="M153.28,229.2c0,.29-13.92.52-31.07.52s-31.08-.23-31.08-.52,13.91-.51,31.08-.51S153.28,228.92,153.28,229.2Z" style="fill:#263238"></path><path d="M153.28,237.87c0,.28-13.92.51-31.07.51s-31.08-.23-31.08-.51,13.91-.52,31.08-.52S153.28,237.58,153.28,237.87Z" style="fill:#263238"></path><path d="M153.28,246.53c0,.28-13.92.51-31.07.51s-31.08-.23-31.08-.51S105,246,122.21,246,153.28,246.25,153.28,246.53Z" style="fill:#263238"></path><path d="M153.28,255.19c0,.29-13.92.52-31.07.52s-31.08-.23-31.08-.52,13.91-.51,31.08-.51S153.28,254.91,153.28,255.19Z" style="fill:#263238"></path><path d="M139.91,263.1c0,.14-2,.27-5.22.36s-7.69.15-12.62.15-9.38-.05-12.61-.15-5.22-.22-5.22-.36,2-.27,5.22-.36,7.69-.15,12.61-.15,9.39.05,12.62.15S139.91,263,139.91,263.1Z" style="fill:#263238"></path><path d="M211.29,105.77h-7.18A5.31,5.31,0,0,0,202,106a3.37,3.37,0,0,0-1.71,1.52,3.49,3.49,0,0,0-.4,1.15,7.62,7.62,0,0,0-.06,1.27c0,.44,0,.88,0,1.33a7.12,7.12,0,0,1-.09,1.37,3.65,3.65,0,0,1-1.6,2.31,3.45,3.45,0,0,1-1.41.5c-.51,0-1,0-1.52,0h-26a4.12,4.12,0,0,1-1-.1,3.49,3.49,0,0,1-1.79-1.11,3.69,3.69,0,0,1-.87-2,7.8,7.8,0,0,1,0-1.08v-1.07a5.77,5.77,0,0,0-.21-2.12,3.41,3.41,0,0,0-1.29-1.68,3.24,3.24,0,0,0-2.06-.57H145.27a10.94,10.94,0,0,0-8.84,3.92,11.15,11.15,0,0,0-2.28,4.59c-.11.42-.14.86-.22,1.29s0,.74-.05,1.11V293.83a11.63,11.63,0,0,0,.44,3.48,11,11,0,0,0,4.27,5.89,11.37,11.37,0,0,0,7,1.94h22.26l28.92,0h14.09c2.32,0,4.65,0,6.93,0a10.9,10.9,0,0,0,6.22-2.41,11.83,11.83,0,0,0,2.25-2.49,11,11,0,0,0,1.37-3,11.86,11.86,0,0,0,.42-3.3V277.34c0-34.85,0-66.23.06-92.59s0-47.68.06-62.42c0-1.85,0-3.59,0-5.22a11.36,11.36,0,0,0-.81-4.46,11,11,0,0,0-2.08-3.28,10.64,10.64,0,0,0-2.5-2.05,10.37,10.37,0,0,0-4.12-1.45,8.9,8.9,0,0,0-1.12-.11l-.38,0h-1.5Z" style="fill:#fafafa"></path><path d="M217.28,105.66l.38,0a7.77,7.77,0,0,1,1.12.08,11.15,11.15,0,0,1,6.68,3.48,11.06,11.06,0,0,1,2.1,3.3,11.39,11.39,0,0,1,.83,4.5c0,1.63,0,3.37,0,5.21,0,14.75,0,36.07,0,62.43s0,57.74,0,92.58v16.59a11.67,11.67,0,0,1-.42,3.37,11.28,11.28,0,0,1-1.42,3.12,11.92,11.92,0,0,1-2.3,2.56,11.25,11.25,0,0,1-6.39,2.48c-2.32.07-4.62,0-7,0H145.69a11.77,11.77,0,0,1-7.2-2,11.38,11.38,0,0,1-4.39-6.06,12.19,12.19,0,0,1-.46-3.74V275.06q0-14.69,0-28.93c0-19,0-37.25,0-54.68s0-34,0-49.48q0-11.62,0-22.43v-2.68c0-.45,0-.9.06-1.34s.11-.89.23-1.32a11.21,11.21,0,0,1,2.33-4.69,11.5,11.5,0,0,1,4.1-3.07,11.68,11.68,0,0,1,4.92-.93h16.56a3.48,3.48,0,0,1,2.17.61,3.68,3.68,0,0,1,1.36,1.78,6,6,0,0,1,.22,2.18v1.08a7.26,7.26,0,0,0,0,1,3.46,3.46,0,0,0,.82,1.86,3.35,3.35,0,0,0,1.69,1,3.73,3.73,0,0,0,1,.09h5l14.59,0h6.44c.5,0,1,0,1.5,0a3.25,3.25,0,0,0,1.36-.47,3.55,3.55,0,0,0,1.55-2.23,6.09,6.09,0,0,0,.08-1.35c0-.44,0-.88,0-1.32a8,8,0,0,1,.05-1.29,4,4,0,0,1,.42-1.18,3.55,3.55,0,0,1,1.77-1.57,5.56,5.56,0,0,1,2.2-.23l7.17,0,4.42,0h1.5l-1.5,0H204.19a5.48,5.48,0,0,0-2.16.24,3.32,3.32,0,0,0-1.71,1.52,3.51,3.51,0,0,0-.41,1.15,8.88,8.88,0,0,0,0,1.27v1.32a6.34,6.34,0,0,1-.08,1.37,3.62,3.62,0,0,1-1.61,2.32,3.41,3.41,0,0,1-1.4.5c-.52,0-1,0-1.52,0h-26a4.09,4.09,0,0,1-1-.11,3.43,3.43,0,0,1-1.79-1.1,3.69,3.69,0,0,1-.87-1.95,7.92,7.92,0,0,1,0-1.08V110.1a5.79,5.79,0,0,0-.22-2.12A3.48,3.48,0,0,0,164,106.3a3.37,3.37,0,0,0-2.06-.57H145.35a11,11,0,0,0-8.85,3.93,11.19,11.19,0,0,0-2.27,4.59c-.11.42-.14.86-.22,1.29s0,.87-.06,1.32V142c0,15.49,0,32.05,0,49.48v54.68q0,14.24,0,28.93v18.53a11.8,11.8,0,0,0,.45,3.65,11,11,0,0,0,4.27,5.89,11.33,11.33,0,0,0,7,1.93H168l28.92,0H211c2.33,0,4.66,0,6.94,0a10.93,10.93,0,0,0,6.22-2.41,11.52,11.52,0,0,0,2.24-2.49,10.7,10.7,0,0,0,1.38-3,11.42,11.42,0,0,0,.41-3.29c0-1.13,0-2.24,0-3.36V277.26c0-34.84,0-66.22.05-92.58s0-47.68.07-62.43V117a11.54,11.54,0,0,0-.8-4.46,11.09,11.09,0,0,0-2.08-3.29,10.84,10.84,0,0,0-2.5-2,11,11,0,0,0-5.24-1.56Z" style="fill:#263238"></path><path d="M219.42,123.58s-1.83.11-4.08.12-4.09,0-4.09,0,1.83-.1,4.08-.12S219.42,123.54,219.42,123.58Z" style="fill:#263238"></path><path d="M219.44,125.67s-1.83.11-4.09.12-4.08,0-4.08-.05,1.82-.1,4.08-.12S219.44,125.63,219.44,125.67Z" style="fill:#263238"></path><path d="M219.45,127.76s-1.82.11-4.08.12-4.09,0-4.09,0,1.83-.1,4.09-.12S219.45,127.72,219.45,127.76Z" style="fill:#263238"></path><path d="M145.12,130.15h.17l.47,0,1.75,0,0,0c0-.39,0-.81,0-1.26,0-.24,0-.46,0-.73a.68.68,0,0,1,.59-.54,7.65,7.65,0,0,1,.83,0,.67.67,0,0,1,.57.67c0,.59,0,1.21,0,1.84l-.08-.08,2.2,0-.08.09c0-.89,0-1.81,0-2.74v-.7a.69.69,0,0,0-.31-.52l-1-1-.93-.92-.45-.44a1.1,1.1,0,0,0-.46-.34.56.56,0,0,0-.5.1c-.13.11-.28.27-.41.4l-.79.8c-.5.51-1,1-1.39,1.43a1.52,1.52,0,0,0-.11.82v.77c0,.48,0,.9,0,1.25s0,.59,0,.8,0,.29,0,.29,0-.09,0-.26,0-.48,0-.79,0-.78,0-1.26c0-.25,0-.51,0-.79s0-.29,0-.43a.93.93,0,0,1,.12-.46c.41-.5.9-.94,1.4-1.47l.78-.81c.14-.14.26-.27.43-.42a.74.74,0,0,1,.63-.12,1.15,1.15,0,0,1,.53.37l.45.45c.31.29.62.6.93.91l1,1a1.51,1.51,0,0,1,.24.26.63.63,0,0,1,.12.37c0,.23,0,.47,0,.7,0,.94,0,1.86,0,2.75v.08h-.09l-2.2,0h-.08v-.08c0-.64,0-1.26,0-1.85a.52.52,0,0,0-.44-.53c-.26,0-.55,0-.8,0a.55.55,0,0,0-.48.43c0,.22,0,.48,0,.7v1.32h-2.44Z" style="fill:#263238"></path><path d="M189.6,141.59a7.38,7.38,0,1,1-7.37-7.37A7.37,7.37,0,0,1,189.6,141.59Z" style="fill:#2ACDFB"></path><path d="M184.76,144.57H179.7V144a2.53,2.53,0,0,1,2.53-2.53h0a2.53,2.53,0,0,1,2.53,2.53Z" style="fill:#fff"></path><path d="M183.71,140.11a1.49,1.49,0,1,1-1.48-1.49A1.48,1.48,0,0,1,183.71,140.11Z" style="fill:#fff"></path><path d="M200.59,161.09c0,.31-8.75.57-19.54.57s-19.55-.26-19.55-.57,8.75-.58,19.55-.58S200.59,160.77,200.59,161.09Z" style="fill:#263238"></path><rect x="145.3" y="176.41" width="25.36" height="33.75" transform="translate(-36.18 350.18) rotate(-89.68)" style="fill:#2ACDFB"></rect><polygon points="141.03 205.87 152.91 190.17 160.15 200.07 165.13 194.83 174.78 206.06 141.03 205.87" style="fill:#2ACDFB"></polygon><path d="M163.32,188.3a2.66,2.66,0,1,1-2.64-2.67A2.66,2.66,0,0,1,163.32,188.3Z" style="fill:#2ACDFB"></path><g style="opacity:0.2"><polygon points="141.03 205.87 152.91 190.17 160.15 200.07 165.13 194.83 174.78 206.06 141.03 205.87"></polygon></g><g style="opacity:0.2"><path d="M163.32,188.3a2.66,2.66,0,1,1-2.64-2.67A2.66,2.66,0,0,1,163.32,188.3Z"></path></g><rect x="150.58" y="204.22" width="58.63" height="78.01" transform="translate(-64.33 421.77) rotate(-89.68)" style="fill:#2ACDFB"></rect><polygon points="140.73 272.33 168.18 236.03 184.93 258.93 196.44 246.81 218.74 272.76 140.73 272.33" style="fill:#2ACDFB"></polygon><path d="M192.24,231.7a6.14,6.14,0,1,1-6.1-6.17A6.13,6.13,0,0,1,192.24,231.7Z" style="fill:#2ACDFB"></path><g style="opacity:0.2"><polygon points="140.73 272.33 168.18 236.03 184.93 258.93 196.44 246.81 218.74 272.76 140.73 272.33"></polygon></g><g style="opacity:0.2"><path d="M192.24,231.7a6.14,6.14,0,1,1-6.1-6.17A6.13,6.13,0,0,1,192.24,231.7Z"></path></g><rect x="189.85" y="176.41" width="25.36" height="33.75" transform="translate(8.12 394.73) rotate(-89.68)" style="fill:#2ACDFB"></rect><polygon points="185.58 205.87 197.46 190.17 204.7 200.07 209.69 194.83 219.33 206.06 185.58 205.87" style="fill:#2ACDFB"></polygon><circle cx="205.21" cy="188.28" r="2.66" style="fill:#2ACDFB"></circle><g style="opacity:0.2"><polygon points="185.58 205.87 197.46 190.17 204.7 200.07 209.69 194.83 219.33 206.06 185.58 205.87"></polygon></g><g style="opacity:0.2"><circle cx="205.21" cy="188.28" r="2.66"></circle></g><path d="M420.84,115.65h-6.43a5.15,5.15,0,0,0-1.94.21,3.16,3.16,0,0,0-1.89,2.4,6.14,6.14,0,0,0-.05,1.14v1.19a5.08,5.08,0,0,1-.08,1.22A3.29,3.29,0,0,1,409,123.9a3.11,3.11,0,0,1-1.26.44c-.46,0-.91,0-1.37,0H383.05a3.37,3.37,0,0,1-.94-.09,3.11,3.11,0,0,1-1.6-1,3.29,3.29,0,0,1-.78-1.75,8,8,0,0,1,0-1v-1a5,5,0,0,0-.19-1.9,3.08,3.08,0,0,0-1.15-1.51,3,3,0,0,0-1.85-.51H361.65a9.84,9.84,0,0,0-7.93,3.52,10,10,0,0,0-2,4.12,11,11,0,0,0-.19,1.15c0,.33,0,.66-.05,1V284.28a10.25,10.25,0,0,0,.4,3.12,9.85,9.85,0,0,0,3.82,5.28,10.2,10.2,0,0,0,6.3,1.74h20l25.93,0h12.64c2.08,0,4.17,0,6.22,0a9.77,9.77,0,0,0,5.57-2.16,10.18,10.18,0,0,0,2-2.24,9.71,9.71,0,0,0,1.24-2.72,10.12,10.12,0,0,0,.37-2.95v-3q0-6,0-11.86c0-31.24,0-59.38,0-83s0-42.76.06-56c0-1.65,0-3.21,0-4.67a10.37,10.37,0,0,0-.73-4,9.91,9.91,0,0,0-4.1-4.78,9.52,9.52,0,0,0-3.7-1.31c-.44-.08-.78-.06-1-.09l-.34,0h-5.31Z" style="fill:#fafafa"></path><rect x="365.34" y="182.94" width="55.84" height="11.41" style="fill:#ebebeb"></rect><path d="M426.34,115.56h.34a7.72,7.72,0,0,1,1,.08,10,10,0,0,1,6,3.12,10.24,10.24,0,0,1,1.89,3,10.37,10.37,0,0,1,.74,4v4.68c0,13.21,0,32.34,0,56s0,51.77,0,83v14.87a10.37,10.37,0,0,1-.38,3,9.64,9.64,0,0,1-1.27,2.79,10.48,10.48,0,0,1-2.06,2.3,10.08,10.08,0,0,1-5.73,2.22c-2.08.06-4.15,0-6.24,0H362.15a10.54,10.54,0,0,1-6.46-1.78,10.16,10.16,0,0,1-3.93-5.44,10.89,10.89,0,0,1-.42-3.35v-3.35q0-6.68,0-13.26V241.51c0-17,0-33.41,0-49s0-30.47,0-44.37q0-10.43,0-20.1c0-.81,0-1.61,0-2.41,0-.4,0-.8,0-1.2s.1-.8.2-1.19a10,10,0,0,1,10.18-7.78h14.85a3.21,3.21,0,0,1,1.95.55,3.28,3.28,0,0,1,1.21,1.59,5.07,5.07,0,0,1,.2,2v1a7.26,7.26,0,0,0,0,.94,3.05,3.05,0,0,0,.75,1.66,2.84,2.84,0,0,0,1.51.94,3,3,0,0,0,.9.09h4.49l13.08,0h5.77c.45,0,.92,0,1.35,0a2.84,2.84,0,0,0,1.21-.43,3.09,3.09,0,0,0,1.39-2,4.82,4.82,0,0,0,.08-1.2v-1.19a7.39,7.39,0,0,1,.06-1.15,3.32,3.32,0,0,1,.37-1.07,3.18,3.18,0,0,1,1.59-1.4,5.15,5.15,0,0,1,2-.21l6.43,0,4,0h1.35l-1.35,0H414.6a4.76,4.76,0,0,0-1.94.21,3,3,0,0,0-1.53,1.36,3.16,3.16,0,0,0-.36,1,6.14,6.14,0,0,0,0,1.14v1.19a5.7,5.7,0,0,1-.08,1.23,3.25,3.25,0,0,1-1.43,2.07,3,3,0,0,1-1.27.45c-.46,0-.9,0-1.36,0H383.24a4.28,4.28,0,0,1-.94-.09,3.26,3.26,0,0,1-2.38-2.74,6.35,6.35,0,0,1,0-1v-1a5.24,5.24,0,0,0-.19-1.9,3,3,0,0,0-3-2H361.84a10.28,10.28,0,0,0-4.33.83,9.78,9.78,0,0,0-5.64,6.81c-.1.38-.13.77-.2,1.16s-.05.78-.05,1.18v22.51c0,13.9,0,28.74,0,44.37v49q0,12.75,0,25.94v16.61a10.59,10.59,0,0,0,.4,3.27,9.88,9.88,0,0,0,3.83,5.28,10.2,10.2,0,0,0,6.3,1.74h20l25.93,0h12.63c2.09,0,4.17,0,6.22,0a9.77,9.77,0,0,0,5.58-2.16,10.66,10.66,0,0,0,2-2.23,10,10,0,0,0,1.24-2.72,10.92,10.92,0,0,0,.37-3V269.42c0-31.24,0-59.38.05-83s0-42.76.05-56c0-1.66,0-3.22,0-4.68a10.25,10.25,0,0,0-.72-4,9.89,9.89,0,0,0-1.87-2.94,9.26,9.26,0,0,0-2.24-1.84,9.49,9.49,0,0,0-3.69-1.3,6.54,6.54,0,0,0-1-.09Z" style="fill:#263238"></path><path d="M428.25,131.63s-1.64.09-3.66.11-3.66,0-3.66-.05,1.64-.09,3.66-.11S428.25,131.59,428.25,131.63Z" style="fill:#263238"></path><path d="M428.27,133.5c0,.05-1.64.09-3.66.11s-3.66,0-3.67-.05,1.64-.09,3.67-.1S428.27,133.46,428.27,133.5Z" style="fill:#263238"></path><path d="M428.28,135.38s-1.63.09-3.66.11-3.66,0-3.66-.05,1.64-.09,3.66-.11S428.28,135.34,428.28,135.38Z" style="fill:#263238"></path><path d="M361.64,137.52s.05,0,.15,0l.42,0,1.57,0,0,0c0-.35,0-.73,0-1.13,0-.22,0-.41,0-.66a.6.6,0,0,1,.52-.48c.25,0,.47,0,.75,0a.6.6,0,0,1,.51.6c0,.53,0,1.08,0,1.65l-.07-.07,2,0-.08.08c0-.79,0-1.62,0-2.46v-.62a.62.62,0,0,0-.28-.47l-.86-.85-.83-.82-.41-.4c-.14-.13-.24-.27-.41-.3a.52.52,0,0,0-.45.08c-.12.1-.25.25-.37.36l-.7.72c-.45.46-.91.88-1.25,1.28a1.42,1.42,0,0,0-.1.74v.69c0,.43,0,.8,0,1.12s0,.53,0,.72v.26a1.1,1.1,0,0,1,0-.24c0-.19,0-.42,0-.71l0-1.12c0-.23,0-.46,0-.71v-.39a.74.74,0,0,1,.11-.41c.36-.45.8-.85,1.25-1.32.22-.24.46-.48.7-.72a4.54,4.54,0,0,1,.38-.38.68.68,0,0,1,.57-.11,1,1,0,0,1,.47.34l.41.39.83.82.87.85a1.74,1.74,0,0,1,.22.24.64.64,0,0,1,.1.33c0,.21,0,.42,0,.63,0,.84,0,1.66,0,2.46v.07h-.08l-2,0h-.07v-.07c0-.58,0-1.13,0-1.66a.48.48,0,0,0-.4-.48h-.72a.48.48,0,0,0-.42.38c0,.2,0,.43,0,.63v1.18h-2.18Z" style="fill:#263238"></path><rect x="365.46" y="199.95" width="55.84" height="11.41" style="fill:#ebebeb"></rect><rect x="365.46" y="216.5" width="55.84" height="11.41" style="fill:#ebebeb"></rect><path d="M407.88,250.58h-28a5.71,5.71,0,0,1-5.7-5.71h0a5.7,5.7,0,0,1,5.7-5.7h28a5.7,5.7,0,0,1,5.7,5.7h0A5.71,5.71,0,0,1,407.88,250.58Z" style="fill:#2ACDFB"></path><path d="M411.25,171.15c0,.28-7.84.51-17.52.51s-17.52-.23-17.52-.51,7.84-.51,17.52-.51S411.25,170.87,411.25,171.15Z" style="fill:#263238"></path><path d="M375.07,103.85h-7.18a5.31,5.31,0,0,0-2.16.23,3.37,3.37,0,0,0-1.71,1.52,3.74,3.74,0,0,0-.4,1.15,6.76,6.76,0,0,0-.05,1.28v1.32a7.12,7.12,0,0,1-.09,1.37,3.65,3.65,0,0,1-1.6,2.31,3.45,3.45,0,0,1-1.41.5c-.51,0-1,0-1.52,0h-26a4.12,4.12,0,0,1-1-.1,3.49,3.49,0,0,1-1.79-1.11,3.77,3.77,0,0,1-.87-2,9.75,9.75,0,0,1,0-1.08v-1.07a5.77,5.77,0,0,0-.21-2.12,3.45,3.45,0,0,0-1.28-1.68,3.33,3.33,0,0,0-2.07-.57H309.05a10.94,10.94,0,0,0-8.84,3.92,11.15,11.15,0,0,0-2.28,4.59c-.11.43-.14.86-.22,1.29s0,.74,0,1.11V291.91a11.32,11.32,0,0,0,.45,3.48,10.94,10.94,0,0,0,4.26,5.89,11.37,11.37,0,0,0,7,1.94h22.26l28.92,0h14.09c2.32,0,4.65,0,6.93,0a10.9,10.9,0,0,0,6.22-2.41,11.57,11.57,0,0,0,2.25-2.49,11,11,0,0,0,1.37-3,11.16,11.16,0,0,0,.42-3.3v-3.35q0-6.7,0-13.23c0-34.85,0-66.23.05-92.59s0-47.68.06-62.42c0-1.85,0-3.59,0-5.22a11.36,11.36,0,0,0-.81-4.46,11,11,0,0,0-2.08-3.28,11,11,0,0,0-6.62-3.5,8.49,8.49,0,0,0-1.12-.1l-.38,0h-1.5Z" style="fill:#fafafa"></path><path d="M381.06,104h.38a10.1,10.1,0,0,1,1.12.09,10.47,10.47,0,0,1,4.15,1.43,10.75,10.75,0,0,1,2.53,2,11.06,11.06,0,0,1,2.1,3.3,11.34,11.34,0,0,1,.83,4.49c0,1.64,0,3.38,0,5.22,0,14.74,0,36.07,0,62.43s0,57.74,0,92.58v16.58a11.7,11.7,0,0,1-.42,3.38,11.12,11.12,0,0,1-1.42,3.12,11.89,11.89,0,0,1-2.3,2.56,11.25,11.25,0,0,1-6.39,2.48c-2.32.06-4.62,0-6.95,0H309.47a11.65,11.65,0,0,1-7.2-2,11.32,11.32,0,0,1-4.39-6.05,12.21,12.21,0,0,1-.46-3.75V273.37q0-14.7,0-28.93c0-19,0-37.26,0-54.68s0-34,0-49.49c0-7.74,0-15.23,0-22.42v-2.68c0-.45,0-.9.06-1.35s.12-.88.23-1.31a11.32,11.32,0,0,1,2.33-4.69,11.5,11.5,0,0,1,4.1-3.07,11.68,11.68,0,0,1,4.92-.93h16.56a3.53,3.53,0,0,1,2.18.61,3.72,3.72,0,0,1,1.35,1.78,5.8,5.8,0,0,1,.22,2.18v1.08a7.26,7.26,0,0,0,0,1.05,3.55,3.55,0,0,0,.82,1.85,3.28,3.28,0,0,0,1.69,1,3.37,3.37,0,0,0,1,.1h5l14.59,0H359c.5,0,1,0,1.5,0a3.25,3.25,0,0,0,1.36-.47,3.55,3.55,0,0,0,1.55-2.23,6.81,6.81,0,0,0,.09-1.35v-1.32a6.93,6.93,0,0,1,.06-1.29,3.82,3.82,0,0,1,.41-1.19,3.57,3.57,0,0,1,1.77-1.56,5.58,5.58,0,0,1,2.2-.23l7.17,0,4.42,0h1.5l-1.5,0H368a5.5,5.5,0,0,0-2.16.24,3.32,3.32,0,0,0-1.71,1.52,3.28,3.28,0,0,0-.4,1.15,7.56,7.56,0,0,0-.06,1.27v1.32a6.34,6.34,0,0,1-.08,1.37,3.6,3.6,0,0,1-1.6,2.31,3.36,3.36,0,0,1-1.41.5c-.51,0-1,0-1.52,0H333a3.67,3.67,0,0,1-1-.1,3.5,3.5,0,0,1-1.79-1.1,3.69,3.69,0,0,1-.87-2,7.92,7.92,0,0,1,0-1.08v-1.08a5.79,5.79,0,0,0-.21-2.12,3.51,3.51,0,0,0-1.29-1.68,3.3,3.3,0,0,0-2.06-.57H309.13a11.36,11.36,0,0,0-4.83.92,11,11,0,0,0-6.29,7.6c-.11.42-.14.86-.22,1.29s-.05.87-.06,1.32v2.68c0,7.19,0,14.68,0,22.42v133.1c0,4.89,0,9.83,0,14.79v3.73a11.86,11.86,0,0,0,.45,3.66,11,11,0,0,0,4.27,5.89,11.35,11.35,0,0,0,7,1.93h65.28c2.32,0,4.65,0,6.93,0A10.91,10.91,0,0,0,387.9,301a11.78,11.78,0,0,0,2.25-2.48,11.09,11.09,0,0,0,1.37-3,11.81,11.81,0,0,0,.42-3.3V275.57c0-34.84,0-66.23.05-92.58s.05-47.69.07-62.43v-5.22a11.31,11.31,0,0,0-.8-4.45,11.09,11.09,0,0,0-2.08-3.29,10.84,10.84,0,0,0-2.5-2,10.64,10.64,0,0,0-4.12-1.46,8.49,8.49,0,0,0-1.12-.1Z" style="fill:#263238"></path><path d="M383.2,121.89s-1.83.1-4.08.12S375,122,375,122s1.83-.1,4.09-.12S383.2,121.84,383.2,121.89Z" style="fill:#263238"></path><path d="M383.22,124s-1.83.1-4.09.12-4.08,0-4.08,0,1.83-.1,4.08-.12S383.22,123.93,383.22,124Z" style="fill:#263238"></path><path d="M383.23,126.07c0,.05-1.82.1-4.08.12s-4.08,0-4.08,0,1.82-.1,4.08-.12S383.23,126,383.23,126.07Z" style="fill:#263238"></path><path d="M308.9,128.46s.06,0,.17,0l.47,0,1.75,0-.05.05c0-.39,0-.81,0-1.27,0-.23,0-.45,0-.72a.68.68,0,0,1,.59-.54c.28,0,.53,0,.83,0a.68.68,0,0,1,.57.68c0,.59,0,1.2,0,1.84l-.08-.08,2.2,0-.08.09c0-.89,0-1.81,0-2.75V125a.69.69,0,0,0-.31-.52l-1-1-.93-.92-.45-.44c-.15-.15-.28-.31-.46-.34a.59.59,0,0,0-.5.09c-.13.12-.28.28-.41.41l-.79.79c-.5.52-1,1-1.39,1.44a1.51,1.51,0,0,0-.11.82v.77c0,.48,0,.89,0,1.25s0,.58,0,.8a1.43,1.43,0,0,1,0,.29s0-.09,0-.27,0-.47,0-.78,0-.78,0-1.26c0-.25,0-.51,0-.79s0-.29,0-.43a.9.9,0,0,1,.13-.47c.4-.49.89-.94,1.39-1.47l.78-.8a5.75,5.75,0,0,1,.43-.42.75.75,0,0,1,.64-.13,1.28,1.28,0,0,1,.52.38l.45.44.94.92,1,.94a2.21,2.21,0,0,1,.25.27.7.7,0,0,1,.11.37c0,.23,0,.47,0,.7,0,.94,0,1.86,0,2.74v.09h-2.37v-.08c0-.64,0-1.25,0-1.84a.53.53,0,0,0-.44-.54c-.25,0-.55,0-.8,0a.53.53,0,0,0-.47.43,5.45,5.45,0,0,0,0,.7v1.32h0l-1.77,0h-.62Z" style="fill:#263238"></path><circle cx="346.1" cy="169.69" r="18.48" transform="translate(125.44 485.75) rotate(-81.2)" style="fill:#2ACDFB"></circle><path d="M352.44,177.15H339.76v-1.56a6.34,6.34,0,0,1,6.34-6.34h0a6.34,6.34,0,0,1,6.34,6.34Z" style="fill:#fff"></path><circle cx="346.1" cy="165.97" r="3.73" style="fill:#fff"></circle><rect x="313.17" y="209.33" width="62.28" height="12.72" style="fill:#ebebeb"></rect><rect x="313.17" y="227.79" width="62.28" height="12.72" style="fill:#ebebeb"></rect><path d="M360.48,265.79H329.22a6.35,6.35,0,0,1-6.36-6.36h0a6.36,6.36,0,0,1,6.36-6.36h31.26a6.36,6.36,0,0,1,6.36,6.36h0A6.36,6.36,0,0,1,360.48,265.79Z" style="fill:#2ACDFB"></path><path d="M364.37,201.67c0,.31-8.75.57-19.54.57s-19.55-.26-19.55-.57,8.75-.58,19.55-.58S364.37,201.35,364.37,201.67Z" style="fill:#263238"></path><path d="M321.77,218.49H319a.48.48,0,0,1-.49-.48h0a1.83,1.83,0,0,1,1.83-1.84h.06a1.84,1.84,0,0,1,1.84,1.84h0A.48.48,0,0,1,321.77,218.49Z" style="fill:#e0e0e0"></path><path d="M321.49,215.21a1.1,1.1,0,1,1-1.1-1.1A1.09,1.09,0,0,1,321.49,215.21Z" style="fill:#e0e0e0"></path><rect x="318.75" y="234.35" width="3.28" height="2.32" style="fill:#e0e0e0"></rect><path d="M322.4,234.85h-1.1v-.72a.93.93,0,0,0-1.86,0v.72h-1.1v-.72a2,2,0,1,1,4.06,0Z" style="fill:#e0e0e0"></path><path d="M309.11,64.81l-10.69,0a8.06,8.06,0,0,0-3.22.35,5,5,0,0,0-2.54,2.26,5.27,5.27,0,0,0-.6,1.71A9.87,9.87,0,0,0,292,71v2a8.79,8.79,0,0,1-.13,2,5.38,5.38,0,0,1-2.38,3.44,5.05,5.05,0,0,1-2.1.75c-.76.06-1.5,0-2.27,0H246.33a5.87,5.87,0,0,1-1.55-.15,5.08,5.08,0,0,1-2.66-1.65,5.35,5.35,0,0,1-1.3-2.9,10.8,10.8,0,0,1-.06-1.6V71.37a8.53,8.53,0,0,0-.32-3.15,5.14,5.14,0,0,0-1.91-2.5,5,5,0,0,0-3.08-.85H210.79a16.36,16.36,0,0,0-13.17,5.84,16.56,16.56,0,0,0-3.39,6.84c-.16.62-.21,1.28-.33,1.92s-.05,1.09-.07,1.64v263.6a17.13,17.13,0,0,0,.66,5.19,16.41,16.41,0,0,0,6.35,8.76,16.94,16.94,0,0,0,10.47,2.88h33.15l43.07,0h21c3.45,0,6.92.06,10.33,0a16.21,16.21,0,0,0,9.26-3.59,17.53,17.53,0,0,0,3.34-3.7,16.18,16.18,0,0,0,2.05-4.52,17.27,17.27,0,0,0,.62-4.91v-5q0-10,0-19.68c0-51.87.05-98.57.07-137.8s.08-71,.1-92.91c0-2.75,0-5.34,0-7.77a17,17,0,0,0-1.2-6.63,16.32,16.32,0,0,0-3.1-4.89,15.55,15.55,0,0,0-3.72-3A15.77,15.77,0,0,0,320.15,65a13.39,13.39,0,0,0-1.67-.15l-.56,0-2.24,0Z" style="fill:#fafafa"></path><path d="M318.08,64.87l.57,0a12.19,12.19,0,0,1,1.66.12,15.67,15.67,0,0,1,6.17,2.13,15.91,15.91,0,0,1,3.75,3,16.36,16.36,0,0,1,3.13,4.91,17.12,17.12,0,0,1,1.23,6.67c0,2.43,0,5,0,7.75,0,21.9,0,53.59,0,92.74s0,85.78,0,137.54v24.64a17.71,17.71,0,0,1-.63,5,16.83,16.83,0,0,1-2.1,4.63,17.67,17.67,0,0,1-3.42,3.8,16.64,16.64,0,0,1-9.5,3.69c-3.44.1-6.87,0-10.33,0H287.77l-43,0H211.74a17.41,17.41,0,0,1-10.71-3,16.8,16.8,0,0,1-6.51-9,18.09,18.09,0,0,1-.69-5.56V338.5q0-11.07,0-22,0-21.82,0-43c0-28.17,0-55.34,0-81.23s0-50.49,0-73.51q0-17.26,0-33.32c0-1.33,0-2.66,0-4,0-.66.05-1.33.09-2s.16-1.32.33-2a17,17,0,0,1,3.46-7,16.68,16.68,0,0,1,13.41-5.94l14.32,0h10.27a5.25,5.25,0,0,1,3.24.9,5.44,5.44,0,0,1,2,2.65,8.74,8.74,0,0,1,.33,3.24v1.6a11.61,11.61,0,0,0,0,1.57,5.16,5.16,0,0,0,1.23,2.75,4.86,4.86,0,0,0,2.51,1.56,6.1,6.1,0,0,0,1.48.15h7.45l21.67,0h9.56c.75,0,1.52,0,2.24,0a4.88,4.88,0,0,0,2-.7,5.17,5.17,0,0,0,2.3-3.31,8.93,8.93,0,0,0,.13-2c0-.67,0-1.32,0-2a11.06,11.06,0,0,1,.08-1.91,5.5,5.5,0,0,1,.62-1.76,5.19,5.19,0,0,1,2.63-2.32,8.17,8.17,0,0,1,3.26-.35l10.66,0,6.56,0,2.23,0-2.23,0-6.56,0-10.66,0a8.18,8.18,0,0,0-3.21.34,5.11,5.11,0,0,0-2.54,2.26,5.43,5.43,0,0,0-.59,1.71,9.87,9.87,0,0,0-.08,1.89v2a8.74,8.74,0,0,1-.13,2,5.38,5.38,0,0,1-2.38,3.44,5.08,5.08,0,0,1-2.09.74c-.76.07-1.5,0-2.26,0H246.67a5.76,5.76,0,0,1-1.54-.16,5.13,5.13,0,0,1-2.66-1.64,5.5,5.5,0,0,1-1.3-2.89,12.48,12.48,0,0,1,0-1.61v-1.6a8.75,8.75,0,0,0-.32-3.15,5.11,5.11,0,0,0-1.91-2.49,5,5,0,0,0-3.07-.85h-24.6a16.31,16.31,0,0,0-13.13,5.83,16.34,16.34,0,0,0-3.38,6.82c-.17.63-.22,1.28-.33,1.92s-.08,1.3-.09,2v4q0,16,0,33.32c0,23,0,47.62,0,73.51s0,53.06,0,81.23v43q0,10.91,0,22V344a18.06,18.06,0,0,0,.67,5.43,16.36,16.36,0,0,0,6.34,8.75,16.86,16.86,0,0,0,10.44,2.87h33.07l43,0H308.7c3.45,0,6.91.06,10.31,0a16.11,16.11,0,0,0,9.23-3.58,17.26,17.26,0,0,0,3.34-3.7,16,16,0,0,0,2-4.51,16.83,16.83,0,0,0,.62-4.89v-5q0-9.93,0-19.65c0-51.76.05-98.38.08-137.54s.07-70.84.09-92.74c0-2.74,0-5.32,0-7.75a16.87,16.87,0,0,0-1.2-6.62,16.25,16.25,0,0,0-3.09-4.88,15.81,15.81,0,0,0-3.71-3,15.6,15.6,0,0,0-6.12-2.16,13.42,13.42,0,0,0-1.66-.15Z" style="fill:#263238"></path><path d="M321.26,91.49c0,.07-2.71.15-6.06.18s-6.07,0-6.07-.08,2.71-.15,6.06-.18S321.26,91.42,321.26,91.49Z" style="fill:#263238"></path><path d="M321.29,94.6c0,.07-2.72.15-6.07.17s-6.07,0-6.07-.07,2.72-.15,6.07-.18S321.29,94.52,321.29,94.6Z" style="fill:#263238"></path><path d="M321.31,97.7c0,.07-2.71.15-6.06.18s-6.07,0-6.07-.08,2.71-.15,6.06-.18S321.31,97.63,321.31,97.7Z" style="fill:#263238"></path><path d="M210.88,101.24h.26l.7,0,2.59-.06-.07.08c0-.58,0-1.21,0-1.88,0-.35,0-.68,0-1.09a1,1,0,0,1,.87-.79c.42,0,.79,0,1.24,0a1,1,0,0,1,.85,1c0,.88,0,1.79,0,2.74l-.12-.12,3.27,0-.13.13q0-2,0-4.08c0-.35,0-.69,0-1a1.08,1.08,0,0,0-.46-.78l-1.43-1.41L217,92.51l-.67-.66c-.23-.22-.41-.45-.67-.5a.9.9,0,0,0-.75.14c-.2.17-.41.41-.61.6l-1.17,1.18c-.74.77-1.51,1.47-2.07,2.13a2.31,2.31,0,0,0-.16,1.22v1.15c0,.71,0,1.33,0,1.86s0,.87,0,1.19a2,2,0,0,1,0,.42s0-.12,0-.39,0-.7,0-1.17,0-1.16,0-1.87c0-.37,0-.76,0-1.17,0-.21,0-.43,0-.64a1.21,1.21,0,0,1,.18-.69c.6-.74,1.32-1.4,2.07-2.18l1.16-1.2c.21-.2.38-.41.63-.62a1.14,1.14,0,0,1,.95-.19,1.75,1.75,0,0,1,.78.56l.67.66c.46.44.92.9,1.39,1.36L220,95.1a2.88,2.88,0,0,1,.36.4,1.06,1.06,0,0,1,.18.55v1c0,1.4,0,2.76,0,4.07v.13h-.13l-3.27,0h-.12v-.12c0-1,0-1.86,0-2.74a.8.8,0,0,0-.66-.79c-.38,0-.82,0-1.19,0a.81.81,0,0,0-.7.64c0,.33,0,.71,0,1v2h-.07l-2.63,0h-.69A1,1,0,0,1,210.88,101.24Z" style="fill:#263238"></path><rect x="206.01" y="117.65" width="114.62" height="20.85" rx="8.79" style="fill:#f5f5f5"></rect><path d="M311.83,138.5l.66-.05a8.72,8.72,0,0,0,4.65-1.82,8.67,8.67,0,0,0,2.61-3.31,8.24,8.24,0,0,0,.69-2.43,21.46,21.46,0,0,0,.08-2.81,18.67,18.67,0,0,0-.13-3.06,8.8,8.8,0,0,0-1.14-3,8.68,8.68,0,0,0-5.78-4,23.72,23.72,0,0,0-4-.15h-4.23l-90.45.06a8.59,8.59,0,0,0-8.54,7.86c-.08,1,0,2.14,0,3.2a10,10,0,0,0,.32,3.1,8.71,8.71,0,0,0,3.56,4.86,8.29,8.29,0,0,0,2.77,1.18,13.2,13.2,0,0,0,3,.23h17.82l40.66,0,27.41.07,7.46,0,1.93,0,.66,0s-.22,0-.66,0l-1.93,0-7.46,0-27.41.06-40.66,0H215.89a13.12,13.12,0,0,1-3.11-.23,8.83,8.83,0,0,1-2.91-1.24,9,9,0,0,1-3.73-5.1,10.27,10.27,0,0,1-.34-3.21c0-1.08,0-2.12,0-3.23a9,9,0,0,1,9-8.26l90.45.06h4.23a24.6,24.6,0,0,1,4,.17,8.94,8.94,0,0,1,7.09,7.31,19.18,19.18,0,0,1,.12,3.09,23.72,23.72,0,0,1-.1,2.83,8.66,8.66,0,0,1-.72,2.47,8.82,8.82,0,0,1-2.69,3.35,9,9,0,0,1-2.81,1.43,8.8,8.8,0,0,1-1.91.33C312.06,138.51,311.83,138.5,311.83,138.5Z" style="fill:#263238"></path><path d="M313.6,127.58s0-.33-.2-.9a3.74,3.74,0,0,0-1.38-2,3.59,3.59,0,1,0,0,5.76,3.71,3.71,0,0,0,1.38-2c.17-.56.16-.9.2-.9s0,.08,0,.24a2.79,2.79,0,0,1-.06.7,3.73,3.73,0,0,1-1.37,2.18,3.9,3.9,0,0,1-3.73.61,4,4,0,0,1,0-7.46,3.92,3.92,0,0,1,3.73.61,3.76,3.76,0,0,1,1.37,2.18,2.79,2.79,0,0,1,.06.7Q313.63,127.58,313.6,127.58Z" style="fill:#263238"></path><path d="M315.68,134.09a7.62,7.62,0,0,1-1.85-1.68,7.36,7.36,0,0,1-1.53-2,7.6,7.6,0,0,1,1.85,1.69A7.41,7.41,0,0,1,315.68,134.09Z" style="fill:#263238"></path><path d="M221.48,126h-2v-.53h4.7V126h-2v5.29h-.62Z" style="fill:#e0e0e0"></path><path d="M228.35,129.28h-3.66a1.62,1.62,0,0,0,1.72,1.52,1.71,1.71,0,0,0,1.34-.58l.33.39a2.31,2.31,0,0,1-4-1.52,2.11,2.11,0,0,1,2.14-2.22,2.08,2.08,0,0,1,2.11,2.22Zm-3.66-.44h3.1a1.55,1.55,0,0,0-3.1,0Z" style="fill:#e0e0e0"></path><path d="M232.22,131.28l-1.39-1.83-1.4,1.83h-.66L230.5,129l-1.65-2.13h.67l1.31,1.71,1.31-1.71h.65L231.15,129l1.74,2.24Z" style="fill:#e0e0e0"></path><path d="M236.18,131a1.43,1.43,0,0,1-.93.31,1.16,1.16,0,0,1-1.28-1.27v-2.64h-.78v-.5H234v-1h.59v1h1.33v.5h-1.33V130a.7.7,0,0,0,.76.79,1,1,0,0,0,.65-.22Z" style="fill:#e0e0e0"></path><path d="M284.19,158.36c0,.12-8.39.21-18.73.21s-18.74-.09-18.74-.21,8.39-.22,18.74-.22S284.19,158.24,284.19,158.36Z" style="fill:#2ACDFB"></path><path d="M314.07,166.05c0,.12-15.08.21-33.67.21s-33.68-.09-33.68-.21,15.08-.22,33.68-.22S314.07,165.93,314.07,166.05Z" style="fill:#263238"></path><path d="M313.28,171.54c0,.12-14.9.21-33.28.21s-33.28-.09-33.28-.21,14.9-.21,33.28-.21S313.28,171.42,313.28,171.54Z" style="fill:#263238"></path><path d="M286,176.78c0,.12-8.8.21-19.65.21s-19.65-.09-19.65-.21,8.8-.21,19.65-.21S286,176.66,286,176.78Z" style="fill:#263238"></path><path d="M284.19,200.16c0,.11-8.39.21-18.73.21s-18.74-.1-18.74-.21,8.39-.22,18.74-.22S284.19,200,284.19,200.16Z" style="fill:#2ACDFB"></path><path d="M314.07,207.85c0,.11-15.08.21-33.67.21s-33.68-.1-33.68-.21,15.08-.22,33.68-.22S314.07,207.73,314.07,207.85Z" style="fill:#263238"></path><path d="M313.28,213.34c0,.12-14.9.21-33.28.21s-33.28-.09-33.28-.21,14.9-.22,33.28-.22S313.28,213.22,313.28,213.34Z" style="fill:#263238"></path><path d="M286,218.58c0,.11-8.8.21-19.65.21s-19.65-.1-19.65-.21,8.8-.22,19.65-.22S286,218.46,286,218.58Z" style="fill:#263238"></path><path d="M284.19,242c0,.12-8.39.22-18.73.22s-18.74-.1-18.74-.22,8.39-.21,18.74-.21S284.19,241.84,284.19,242Z" style="fill:#2ACDFB"></path><path d="M314.07,249.64c0,.12-15.08.22-33.67.22s-33.68-.1-33.68-.22,15.08-.21,33.68-.21S314.07,249.53,314.07,249.64Z" style="fill:#263238"></path><path d="M313.28,255.14c0,.11-14.9.21-33.28.21s-33.28-.1-33.28-.21,14.9-.22,33.28-.22S313.28,255,313.28,255.14Z" style="fill:#263238"></path><path d="M286,260.37c0,.12-8.8.22-19.65.22s-19.65-.1-19.65-.22,8.8-.21,19.65-.21S286,260.26,286,260.37Z" style="fill:#263238"></path><path d="M284.19,283.75c0,.12-8.39.21-18.73.21s-18.74-.09-18.74-.21,8.39-.21,18.74-.21S284.19,283.63,284.19,283.75Z" style="fill:#2ACDFB"></path><path d="M314.07,291.44c0,.12-15.08.21-33.67.21s-33.68-.09-33.68-.21,15.08-.21,33.68-.21S314.07,291.32,314.07,291.44Z" style="fill:#263238"></path><path d="M313.28,296.93c0,.12-14.9.22-33.28.22s-33.28-.1-33.28-.22,14.9-.21,33.28-.21S313.28,296.82,313.28,296.93Z" style="fill:#263238"></path><path d="M286,302.17c0,.12-8.8.22-19.65.22s-19.65-.1-19.65-.22,8.8-.21,19.65-.21S286,302.05,286,302.17Z" style="fill:#263238"></path><path d="M284.19,325.26c0,.11-8.39.21-18.73.21s-18.74-.1-18.74-.21,8.39-.22,18.74-.22S284.19,325.14,284.19,325.26Z" style="fill:#2ACDFB"></path><path d="M314.07,333c0,.11-15.08.21-33.67.21s-33.68-.1-33.68-.21,15.08-.22,33.68-.22S314.07,332.83,314.07,333Z" style="fill:#263238"></path><path d="M313.28,338.44c0,.12-14.9.21-33.28.21s-33.28-.09-33.28-.21,14.9-.21,33.28-.21S313.28,338.32,313.28,338.44Z" style="fill:#263238"></path><path d="M286,343.68c0,.12-8.8.21-19.65.21s-19.65-.09-19.65-.21,8.8-.22,19.65-.22S286,343.56,286,343.68Z" style="fill:#263238"></path><rect x="210.32" y="154.34" width="22.94" height="30.52" transform="translate(50.95 390.44) rotate(-89.68)" style="fill:#2ACDFB"></rect><polygon points="206.46 180.99 217.2 166.79 223.76 175.75 228.26 171 236.99 181.16 206.46 180.99" style="fill:#2ACDFB"></polygon><path d="M226.62,165.09a2.41,2.41,0,1,1-2.39-2.41A2.4,2.4,0,0,1,226.62,165.09Z" style="fill:#2ACDFB"></path><g style="opacity:0.2"><polygon points="206.46 180.99 217.2 166.79 223.76 175.75 228.26 171 236.99 181.16 206.46 180.99"></polygon></g><g style="opacity:0.2"><path d="M226.62,165.09a2.41,2.41,0,1,1-2.39-2.41A2.4,2.4,0,0,1,226.62,165.09Z"></path></g><rect x="210.32" y="195.61" width="22.94" height="30.52" transform="translate(9.69 431.48) rotate(-89.68)" style="fill:#2ACDFB"></rect><polygon points="206.46 222.25 217.2 208.05 223.76 217.01 228.26 212.27 236.99 222.43 206.46 222.25" style="fill:#2ACDFB"></polygon><path d="M226.62,206.36a2.41,2.41,0,1,1-2.39-2.42A2.4,2.4,0,0,1,226.62,206.36Z" style="fill:#2ACDFB"></path><g style="opacity:0.2"><polygon points="206.46 222.25 217.2 208.05 223.76 217.01 228.26 212.27 236.99 222.43 206.46 222.25"></polygon></g><g style="opacity:0.2"><path d="M226.62,206.36a2.41,2.41,0,1,1-2.39-2.42A2.4,2.4,0,0,1,226.62,206.36Z"></path></g><rect x="210.32" y="236.87" width="22.94" height="30.52" transform="translate(-31.58 472.52) rotate(-89.68)" style="fill:#2ACDFB"></rect><polygon points="206.46 263.52 217.2 249.32 223.76 258.28 228.26 253.53 236.99 263.69 206.46 263.52" style="fill:#2ACDFB"></polygon><path d="M226.62,247.63a2.41,2.41,0,1,1-2.39-2.42A2.42,2.42,0,0,1,226.62,247.63Z" style="fill:#2ACDFB"></path><g style="opacity:0.2"><polygon points="206.46 263.52 217.2 249.32 223.76 258.28 228.26 253.53 236.99 263.69 206.46 263.52"></polygon></g><g style="opacity:0.2"><path d="M226.62,247.63a2.41,2.41,0,1,1-2.39-2.42A2.42,2.42,0,0,1,226.62,247.63Z"></path></g><rect x="210.32" y="278.14" width="22.94" height="30.52" transform="translate(-72.84 513.55) rotate(-89.68)" style="fill:#2ACDFB"></rect><polygon points="206.46 304.79 217.2 290.59 223.76 299.55 228.26 294.8 236.99 304.96 206.46 304.79" style="fill:#2ACDFB"></polygon><path d="M226.62,288.89a2.41,2.41,0,1,1-2.39-2.41A2.4,2.4,0,0,1,226.62,288.89Z" style="fill:#2ACDFB"></path><g style="opacity:0.2"><polygon points="206.46 304.79 217.2 290.59 223.76 299.55 228.26 294.8 236.99 304.96 206.46 304.79"></polygon></g><g style="opacity:0.2"><path d="M226.62,288.89a2.41,2.41,0,1,1-2.39-2.41A2.4,2.4,0,0,1,226.62,288.89Z"></path></g><rect x="210.32" y="319.2" width="22.94" height="30.52" transform="translate(-113.91 554.39) rotate(-89.68)" style="fill:#2ACDFB"></rect><polygon points="206.46 345.85 217.2 331.65 223.76 340.61 228.26 335.87 236.99 346.02 206.46 345.85" style="fill:#2ACDFB"></polygon><path d="M226.62,330a2.41,2.41,0,1,1-2.39-2.42A2.42,2.42,0,0,1,226.62,330Z" style="fill:#2ACDFB"></path><g style="opacity:0.2"><polygon points="206.46 345.85 217.2 331.65 223.76 340.61 228.26 335.87 236.99 346.02 206.46 345.85"></polygon></g><g style="opacity:0.2"><path d="M226.62,330a2.41,2.41,0,1,1-2.39-2.42A2.42,2.42,0,0,1,226.62,330Z"></path></g><circle cx="436.02" cy="118.74" r="10.88" transform="translate(220.72 516.04) rotate(-76.78)" style="fill:#2ACDFB"></circle><path d="M435.36,122.28a.47.47,0,0,1-.31-.12l-3.67-3a.5.5,0,0,1,.64-.78l3.27,2.7,4.65-5.69a.52.52,0,0,1,.71-.07.5.5,0,0,1,.07.7l-5,6.08a.48.48,0,0,1-.34.18Z" style="fill:#fff"></path><circle cx="389.07" cy="103.82" r="14.92" style="fill:#2ACDFB"></circle><path d="M388.17,109a1,1,0,0,1-.63-.22l-5-4.14a1,1,0,0,1-.14-1.4,1,1,0,0,1,1.41-.14l4.24,3.49L394.21,99a1,1,0,0,1,1.4-.14,1,1,0,0,1,.14,1.41l-6.8,8.33a1.06,1.06,0,0,1-.68.36Z" style="fill:#fff"></path></g><g id="freepik--magnifying-glass--inject-2"><path d="M325.79,306.42a31.08,31.08,0,0,1-22-36c-.28.76-.55,1.54-.78,2.34a31.1,31.1,0,0,0,59.82,17c.23-.8.41-1.61.57-2.41A31.08,31.08,0,0,1,325.79,306.42Z" style="fill:#263238"></path><path d="M341.12,251.46a31.1,31.1,0,0,1,22,36c.28-.77.55-1.55.77-2.35a31.09,31.09,0,1,0-59.81-17c-.23.8-.41,1.6-.57,2.41A31.08,31.08,0,0,1,341.12,251.46Z" style="fill:#455a64"></path><path d="M364.23,284.91s0-.17.09-.5.17-.83.3-1.44c.07-.32.15-.68.24-1.07s.1-.83.16-1.3a23.41,23.41,0,0,0,.25-3.26,29.76,29.76,0,0,0-1.07-8.87,31,31,0,0,0-16.1-19.68,30.18,30.18,0,0,0-3.64-1.5c-.63-.2-1.26-.45-1.91-.62l-2-.46c-.33-.07-.66-.16-1-.21l-1-.13c-.69-.08-1.38-.19-2.09-.24a32.37,32.37,0,0,0-4.29,0,32.7,32.7,0,0,0-4.35.6c-.72.17-1.43.39-2.16.58a16.87,16.87,0,0,0-2.14.73,34.7,34.7,0,0,0-4.18,1.9,34.27,34.27,0,0,0-3.88,2.62,29.8,29.8,0,0,0-6.56,7,30.63,30.63,0,0,0-5.33,18.72,29.86,29.86,0,0,0,1.92,9.38,32.8,32.8,0,0,0,1.93,4.26,33.84,33.84,0,0,0,2.55,3.82,16.13,16.13,0,0,0,1.44,1.75c.52.54,1,1.11,1.53,1.63a33.12,33.12,0,0,0,3.39,2.8,33.93,33.93,0,0,0,3.63,2.29c.62.32,1.27.59,1.9.89l.95.43c.32.14.65.23,1,.35l1.94.66c.64.19,1.31.32,1.95.48a27.73,27.73,0,0,0,3.88.63,31.07,31.07,0,0,0,24.05-8.27,29.48,29.48,0,0,0,5.57-7,22.61,22.61,0,0,0,1.5-2.91c.2-.43.4-.82.55-1.19l.36-1c.22-.59.38-1.06.5-1.39s.19-.47.19-.47,0,.17-.14.49-.26.8-.45,1.41c-.1.31-.21.65-.34,1s-.34.78-.53,1.21a21.6,21.6,0,0,1-1.46,2.95,29.82,29.82,0,0,1-5.55,7.09,31.23,31.23,0,0,1-24.29,8.48,28.42,28.42,0,0,1-3.93-.63c-.66-.16-1.33-.28-2-.48l-2-.66c-.32-.12-.66-.21-1-.35l-1-.44c-.64-.3-1.3-.57-1.93-.9A34.89,34.89,0,0,1,316,301.8a32.9,32.9,0,0,1-3.45-2.84c-.54-.53-1-1.1-1.56-1.65a16.53,16.53,0,0,1-1.46-1.77,34.53,34.53,0,0,1-2.6-3.88,36.06,36.06,0,0,1-2-4.33,30.19,30.19,0,0,1-2-9.54,30.88,30.88,0,0,1,5.41-19,30.24,30.24,0,0,1,6.68-7.08,34.47,34.47,0,0,1,3.95-2.65,37.39,37.39,0,0,1,4.24-1.93,17.43,17.43,0,0,1,2.18-.73c.74-.19,1.46-.42,2.2-.58a32.15,32.15,0,0,1,4.42-.61,33.26,33.26,0,0,1,4.35,0c.72.05,1.42.17,2.13.25l1,.13c.35.05.69.15,1,.23l2,.46c.66.18,1.3.43,1.94.64a30,30,0,0,1,3.68,1.54,31.25,31.25,0,0,1,16.19,20,29.26,29.26,0,0,1,1,8.94,21.5,21.5,0,0,1-.3,3.28c-.07.47-.11.91-.19,1.31s-.18.74-.25,1.06q-.24.92-.36,1.44C364.28,284.75,364.23,284.91,364.23,284.91Z" style="fill:#263238"></path><path d="M352.41,302.64c.4.27,29.84,27.42,40.68,37.58a4.71,4.71,0,0,0,6.51-.06h0a4.71,4.71,0,0,0-.06-6.84L359.13,296Z" style="fill:#263238"></path></g></svg>